<svg width="69" height="64" viewBox="0 0 69 64" fill="none" xmlns="http://www.w3.org/2000/svg">
<path d="M69 43.4048C69.0053 43.5921 68.9735 43.7786 68.9064 43.9536C68.8393 44.1285 68.7382 44.2885 68.609 44.4242C68.4798 44.5599 68.325 44.6687 68.1536 44.7444C67.9821 44.82 67.7974 44.8609 67.61 44.8648H8.39002C8.20267 44.8609 8.01793 44.82 7.84647 44.7444C7.67501 44.6687 7.52021 44.5599 7.391 44.4242C7.26179 44.2885 7.16072 44.1285 7.09361 43.9536C7.02651 43.7786 6.9947 43.5921 7.00002 43.4048V2.09477C6.99195 1.71718 7.13358 1.35172 7.394 1.07819C7.65443 0.80465 8.01249 0.645244 8.39002 0.634766H67.61C67.9876 0.645244 68.3456 0.80465 68.606 1.07819C68.8665 1.35172 69.0081 1.71718 69 2.09477V43.4048Z" fill="#1A44ED"/>
<path d="M65.68 40.425C65.684 40.6115 65.6512 40.7969 65.5835 40.9707C65.5158 41.1446 65.4145 41.3033 65.2854 41.438C65.1563 41.5726 65.002 41.6805 64.8312 41.7555C64.6604 41.8305 64.4765 41.8711 64.29 41.875H11.47C11.0925 41.8671 10.7334 41.7102 10.4711 41.4386C10.2089 41.1669 10.0647 40.8026 10.07 40.425V5.08501C10.066 4.89721 10.0991 4.71045 10.1673 4.53543C10.2355 4.36041 10.3376 4.20054 10.4676 4.06496C10.5976 3.92937 10.753 3.82074 10.925 3.74525C11.097 3.66976 11.2822 3.6289 11.47 3.625H64.29C64.4774 3.62888 64.6621 3.66981 64.8336 3.74542C65.005 3.82104 65.1598 3.92985 65.289 4.06557C65.4183 4.20129 65.5193 4.36123 65.5864 4.53619C65.6535 4.71116 65.6853 4.89769 65.68 5.08501V40.425Z" fill="white"/>
<path d="M65.03 39.6148C65.034 39.7964 65.0019 39.9769 64.9354 40.1459C64.869 40.315 64.7696 40.4691 64.643 40.5994C64.5165 40.7297 64.3653 40.8335 64.1982 40.9048C64.0312 40.9761 63.8517 41.0135 63.67 41.0148H12.17C11.9901 41.0135 11.8122 40.9767 11.6465 40.9067C11.4808 40.8366 11.3305 40.7346 11.2042 40.6064C11.0779 40.4783 10.9781 40.3265 10.9105 40.1598C10.8428 39.9931 10.8087 39.8147 10.81 39.6348V6.01477C10.8087 5.83486 10.8428 5.65645 10.9105 5.48973C10.9781 5.32301 11.0779 5.17124 11.2042 5.04309C11.3305 4.91495 11.4808 4.81293 11.6465 4.74287C11.8122 4.67281 11.9901 4.63607 12.17 4.63477H63.67C63.8499 4.63607 64.0278 4.67281 64.1936 4.74287C64.3593 4.81293 64.5096 4.91495 64.6359 5.04309C64.7621 5.17124 64.862 5.32301 64.9296 5.48973C64.9972 5.65645 65.0314 5.83486 65.03 6.01477V39.6148Z" fill="#0570DE"/>
<path d="M68.52 23.3647C68.52 24.6347 67.96 25.6547 67.28 25.6547C66.6 25.6547 66.03 24.6547 66.03 23.3647C66.03 22.0747 66.59 21.0747 67.28 21.0747C67.97 21.0747 68.52 22.1047 68.52 23.3647Z" fill="#004437"/>
<path d="M68.31 23.2548C68.31 24.2548 67.86 25.1048 67.31 25.1048C66.76 25.1048 66.31 24.2748 66.31 23.2548C66.31 22.2348 66.77 21.4048 67.31 21.4048C67.85 21.4048 68.31 22.2348 68.31 23.2548Z" fill="#1A44ED"/>
<g style="mix-blend-mode:multiply" opacity="0.4">
<path d="M64.93 39.5047C64.9314 39.6846 64.8972 39.863 64.8296 40.0297C64.7619 40.1964 64.6621 40.3482 64.5359 40.4763C64.4096 40.6045 64.2593 40.7065 64.0936 40.7766C63.9278 40.8466 63.7499 40.8834 63.57 40.8847H12.05C11.8701 40.8834 11.6922 40.8466 11.5265 40.7766C11.3608 40.7065 11.2105 40.6045 11.0842 40.4763C10.9579 40.3482 10.8581 40.1964 10.7905 40.0297C10.7229 39.863 10.6887 39.6846 10.69 39.5047V36.4247C10.69 35.6647 48.54 4.53467 49.29 4.53467H63.57C63.9343 4.53994 64.2817 4.68902 64.5365 4.94942C64.7912 5.20981 64.9327 5.56038 64.93 5.92467V39.5047Z" fill="#0570DE"/>
</g>
<path d="M9.67001 18.5748C9.66804 18.6931 9.63119 18.8081 9.56407 18.9054C9.49696 19.0027 9.40258 19.0781 9.29278 19.122C9.18299 19.1659 9.06267 19.1763 8.94694 19.1521C8.83122 19.1278 8.72525 19.0699 8.64233 18.9856C8.55942 18.9013 8.50326 18.7944 8.48091 18.6783C8.45856 18.5621 8.47102 18.442 8.51671 18.333C8.5624 18.2239 8.63929 18.1308 8.73773 18.0653C8.83617 17.9998 8.95177 17.9649 9.07001 17.9648C9.14965 17.9648 9.2285 17.9807 9.30196 18.0114C9.37541 18.0422 9.442 18.0873 9.49785 18.1441C9.5537 18.2009 9.59768 18.2682 9.62724 18.3422C9.6568 18.4161 9.67134 18.4952 9.67001 18.5748Z" fill="#004437"/>
<path d="M9.67001 21.175C9.66804 21.2932 9.63119 21.4082 9.56407 21.5055C9.49696 21.6029 9.40258 21.6782 9.29278 21.7221C9.18299 21.766 9.06267 21.7764 8.94694 21.7522C8.83122 21.7279 8.72525 21.67 8.64233 21.5857C8.55942 21.5014 8.50326 21.3945 8.48091 21.2784C8.45856 21.1623 8.47102 21.0422 8.51671 20.9331C8.5624 20.8241 8.63929 20.7309 8.73773 20.6654C8.83617 20.5999 8.95177 20.565 9.07001 20.5649C9.14965 20.5649 9.2285 20.5808 9.30196 20.6116C9.37541 20.6423 9.442 20.6874 9.49785 20.7442C9.5537 20.801 9.59768 20.8683 9.62724 20.9423C9.6568 21.0162 9.67134 21.0953 9.67001 21.175Z" fill="#004437"/>
<path d="M9.67001 23.8947C9.66804 24.0129 9.63119 24.1279 9.56407 24.2253C9.49696 24.3226 9.40258 24.398 9.29278 24.4418C9.18299 24.4857 9.06267 24.4962 8.94694 24.4719C8.83122 24.4476 8.72525 24.3897 8.64233 24.3054C8.55942 24.2211 8.50326 24.1142 8.48091 23.9981C8.45856 23.882 8.47102 23.7619 8.51671 23.6528C8.5624 23.5438 8.63929 23.4506 8.73773 23.3851C8.83617 23.3196 8.95177 23.2847 9.07001 23.2847C9.14965 23.2847 9.2285 23.3005 9.30196 23.3313C9.37541 23.3621 9.442 23.4071 9.49785 23.4639C9.5537 23.5207 9.59768 23.588 9.62724 23.662C9.6568 23.7359 9.67134 23.8151 9.67001 23.8947Z" fill="#004437"/>
<path d="M34.23 45.2447C34.3038 45.3666 34.3283 45.512 34.2985 45.6514C34.2688 45.7907 34.1871 45.9135 34.07 45.9947L9.86001 60.1247C9.79803 60.1564 9.7302 60.1751 9.6607 60.1797C9.59121 60.1842 9.52153 60.1745 9.45595 60.1511C9.39036 60.1276 9.33027 60.091 9.27937 60.0435C9.22848 59.996 9.18786 59.9385 9.16002 59.8747L0.590011 43.8747C0.514322 43.755 0.488679 43.6104 0.518607 43.472C0.548535 43.3335 0.63164 43.2124 0.750014 43.1347L24.96 29.0147C25.0212 28.9831 25.0884 28.9645 25.1571 28.96C25.2259 28.9556 25.2949 28.9654 25.3596 28.9889C25.4244 29.0124 25.4837 29.049 25.5336 29.0965C25.5836 29.1439 25.6232 29.2012 25.65 29.2647L34.23 45.2447Z" fill="#A6DAE8"/>
<path d="M34.17 45.5749C34.2442 45.6941 34.2699 45.8372 34.242 45.9747C34.2141 46.1123 34.1347 46.234 34.02 46.3149L10.17 60.2349C10.0453 60.293 9.90269 60.2993 9.77337 60.2524C9.64406 60.2056 9.53856 60.1094 9.47999 59.9849L0.959997 44.0749C0.889816 43.9555 0.867308 43.8139 0.896971 43.6786C0.926634 43.5432 1.00628 43.4241 1.11999 43.3449L24.96 29.4249C25.0201 29.3947 25.0858 29.3769 25.153 29.3726C25.2202 29.3683 25.2876 29.3777 25.3511 29.4001C25.4146 29.4225 25.4729 29.4575 25.5226 29.503C25.5722 29.5485 25.6122 29.6036 25.64 29.6649L34.17 45.5749Z" fill="#BBD623"/>
<path d="M6.53 46.0146C6.33193 46.1183 6.11497 46.1809 5.89213 46.1986C5.66928 46.2164 5.44513 46.189 5.23314 46.118C5.02115 46.047 4.82568 45.934 4.65846 45.7856C4.49124 45.6372 4.3557 45.4566 4.25999 45.2546C4.02496 44.8538 3.95305 44.378 4.05916 43.9256C4.16526 43.4733 4.44126 43.079 4.83 42.8246C5.02776 42.7195 5.24485 42.6557 5.46805 42.6372C5.69125 42.6187 5.91589 42.6458 6.12827 42.7169C6.34065 42.788 6.53633 42.9016 6.70339 43.0508C6.87045 43.1999 7.00539 43.3816 7.1 43.5846C6.97945 43.3236 6.8073 43.0897 6.59394 42.897C6.38057 42.7043 6.1304 42.5567 5.85849 42.4633C5.58659 42.3698 5.29859 42.3324 5.01184 42.3533C4.72509 42.3741 4.44552 42.4528 4.18999 42.5846C3.698 42.9205 3.35336 43.4321 3.22689 44.0142C3.10042 44.5964 3.20172 45.2048 3.50999 45.7146C3.63054 45.9756 3.80269 46.2095 4.01606 46.4022C4.22942 46.5949 4.47959 46.7424 4.75149 46.8359C5.02339 46.9293 5.3114 46.9667 5.59815 46.9459C5.8849 46.925 6.16447 46.8464 6.42 46.7146C6.88853 46.3913 7.22248 45.9076 7.35881 45.3549C7.49514 44.8022 7.42442 44.2187 7.15999 43.7146C7.3515 44.1092 7.39319 44.5599 7.27731 44.983C7.16143 45.406 6.89587 45.7726 6.53 46.0146Z" fill="#BF672B"/>
<path d="M12.17 50.6648C12.2158 50.7353 12.232 50.821 12.2151 50.9033C12.1983 50.9856 12.1498 51.058 12.08 51.1049L8.75 53.1049C8.67423 53.1394 8.58799 53.1431 8.50956 53.1151C8.43114 53.0871 8.36673 53.0296 8.33 52.9549L6.4 49.3549C6.35934 49.2805 6.34706 49.1938 6.36545 49.1111C6.38384 49.0283 6.43165 48.955 6.5 48.9049L9.83 46.9649C9.86656 46.9466 9.90647 46.9359 9.94729 46.9336C9.98811 46.9313 10.029 46.9373 10.0674 46.9514C10.1058 46.9654 10.1409 46.9872 10.1706 47.0153C10.2002 47.0434 10.2239 47.0773 10.24 47.1149L12.17 50.6648Z" fill="#FADB49"/>
<path d="M10.58 50.785L9.28003 51.545C9.23761 51.5668 9.19118 51.5797 9.1436 51.5829C9.09602 51.586 9.0483 51.5795 9.00336 51.5636C8.95841 51.5477 8.9172 51.5227 8.88223 51.4903C8.84727 51.4579 8.8193 51.4186 8.80003 51.375L7.80003 49.475C7.75077 49.3908 7.73575 49.291 7.75809 49.196C7.78042 49.1011 7.8384 49.0184 7.92003 48.965L9.22003 48.205C9.26271 48.1847 9.30898 48.1729 9.3562 48.1704C9.40342 48.1679 9.45067 48.1748 9.49524 48.1906C9.53981 48.2064 9.58085 48.2308 9.61598 48.2624C9.65112 48.2941 9.67968 48.3323 9.70003 48.375L10.7 50.265C10.7273 50.3067 10.7458 50.3536 10.7546 50.4026C10.7633 50.4517 10.762 50.502 10.7508 50.5506C10.7396 50.5991 10.7187 50.6449 10.6893 50.6852C10.66 50.7255 10.6228 50.7594 10.58 50.785ZM7.95003 49.065C7.89281 49.1055 7.85284 49.1659 7.83803 49.2344C7.82322 49.3029 7.83463 49.3745 7.87003 49.435L8.87003 51.325C8.88394 51.3557 8.90392 51.3832 8.92874 51.406C8.95356 51.4287 8.98271 51.4462 9.01447 51.4574C9.04622 51.4686 9.07991 51.4733 9.11351 51.4712C9.14712 51.4691 9.17994 51.4601 9.21002 51.445L10.51 50.685C10.5672 50.6446 10.6072 50.5841 10.622 50.5156C10.6368 50.4471 10.6254 50.3755 10.59 50.315L9.59003 48.425C9.57509 48.394 9.55415 48.3663 9.52841 48.3434C9.50268 48.3206 9.47267 48.303 9.44011 48.2919C9.40755 48.2807 9.37309 48.2761 9.33875 48.2784C9.3044 48.2806 9.27086 48.2897 9.24004 48.305L7.95003 49.065Z" fill="#2C5871"/>
<path d="M8.18001 48.855L8.10001 48.905L7.70001 48.155L7.78001 48.105L8.18001 48.855Z" fill="#2C5871"/>
<path d="M9.09001 48.325L9.00001 48.375L8.60001 47.635L8.69001 47.585L9.09001 48.325Z" fill="#2C5871"/>
<path d="M8.14003 50.0348L7.12003 50.6248L7.09003 50.5648L8.10003 49.9648L8.14003 50.0348Z" fill="#2C5871"/>
<path d="M8.79002 51.2548L7.77002 51.8548L7.74002 51.7948L8.76002 51.1948L8.79002 51.2548Z" fill="#2C5871"/>
<path d="M10.2 52.2046L10.09 52.2646L9.58002 51.3046L9.68002 51.2446L10.2 52.2046Z" fill="#2C5871"/>
<path d="M10.94 51.7749L10.89 51.7949L10.38 50.8349L10.42 50.8149L10.94 51.7749Z" fill="#2C5871"/>
<path d="M10.91 48.2846L9.89002 48.8746L9.86002 48.8246L10.88 48.2246L10.91 48.2846Z" fill="#2C5871"/>
<path d="M11.57 49.5146L10.55 50.1046L10.52 50.0446L11.53 49.4546L11.57 49.5146Z" fill="#2C5871"/>
<path d="M7.24002 42.9349L7.67001 42.6749C7.71169 42.6533 7.75739 42.6405 7.80424 42.6375C7.8511 42.6344 7.89809 42.641 7.94225 42.657C7.9864 42.673 8.02677 42.6979 8.06081 42.7303C8.09484 42.7626 8.12181 42.8016 8.14001 42.8449C8.21001 42.9849 8.24001 43.1149 8.14001 43.2149C8.22001 43.2149 8.35001 43.2149 8.45001 43.4449C8.55001 43.6749 8.59001 43.8449 8.35001 43.9749L7.92001 44.2349L7.24002 42.9349ZM7.96001 43.2349C8.08001 43.1649 8.10002 43.0649 8.02002 42.9149C7.94002 42.7649 7.81002 42.7649 7.74002 42.8149L7.42001 42.9949L7.65001 43.4249L7.96001 43.2349ZM8.29001 43.8449C8.36001 43.8449 8.46001 43.7149 8.35001 43.5049C8.24001 43.2949 8.16001 43.2849 8.03001 43.3649L7.72002 43.5549L7.98001 44.0349L8.29001 43.8449Z" fill="#BF672B"/>
<path d="M8.5 42.195L8.62 42.125L9.7 43.195L9.56999 43.275L9.28 42.965L8.83 43.235L8.92999 43.655L8.78999 43.725L8.5 42.195ZM9.17 42.865L8.66 42.365L8.8 43.075L9.17 42.865Z" fill="#BF672B"/>
<path d="M9.17001 41.8047L9.28001 41.7347L10.44 42.4447L9.88002 41.3947L9.99002 41.3247L10.69 42.6247L10.57 42.6847L9.41002 41.9847L9.98001 42.9847L9.86002 43.0547L9.17001 41.8047Z" fill="#BF672B"/>
<path d="M10.17 41.1949L10.28 41.1349L10.59 41.7149L10.71 41.6449V40.8549L10.85 40.7749V41.6449L11.59 42.0749L11.45 42.1549L10.79 41.7749L10.66 41.8449L10.98 42.4249L10.86 42.4949L10.17 41.1949Z" fill="#BF672B"/>
<path d="M12.58 57.0249L11.12 57.8649L10.31 56.3549L11.76 55.5049L12.58 57.0249Z" fill="white"/>
<path d="M20.9 52.1548L13.17 56.6748L12.36 55.1548L20.09 50.6348L20.9 52.1548Z" fill="white"/>
<path d="M6.79001 43.7649C6.95868 44.0527 7.0112 44.394 6.93687 44.7192C6.86254 45.0444 6.66696 45.329 6.39001 45.5149C6.24623 45.5894 6.08887 45.6339 5.9274 45.646C5.76594 45.658 5.60372 45.6372 5.4505 45.5849C5.29728 45.5326 5.15623 45.4498 5.03584 45.3415C4.91546 45.2333 4.81823 45.1018 4.75001 44.9549C4.58191 44.6687 4.52969 44.3289 4.60406 44.0054C4.67844 43.6819 4.87377 43.3991 5.15001 43.2149C5.29318 43.1402 5.44997 43.0951 5.61098 43.0823C5.772 43.0696 5.93393 43.0895 6.08706 43.1409C6.2402 43.1922 6.38139 43.274 6.50218 43.3812C6.62297 43.4884 6.72087 43.619 6.79001 43.7649Z" fill="#BF672B"/>
<path d="M9.56999 53.7347C9.81999 53.5847 10 53.5447 10.3 54.1047C10.6 54.6647 10.48 54.7947 10.22 54.9447C9.96 55.0947 9.78001 55.1247 9.49001 54.5847C9.20001 54.0447 9.32999 53.8747 9.56999 53.7347ZM10.15 54.8147C10.38 54.6847 10.42 54.5747 10.2 54.1647C9.98 53.7547 9.83001 53.7347 9.63001 53.8547C9.43001 53.9747 9.33001 54.0347 9.63001 54.5247C9.93001 55.0147 9.92 54.9547 10.17 54.8147H10.15Z" fill="#FAFDFF"/>
<path d="M10.54 53.1649C10.79 53.0149 10.98 52.9749 11.28 53.5349C11.58 54.0949 11.45 54.2249 11.19 54.3749C10.93 54.5249 10.75 54.5549 10.46 54.0149C10.17 53.4749 10.3 53.3049 10.54 53.1649ZM11.13 54.2549C11.35 54.1149 11.39 54.0049 11.13 53.6049C10.87 53.2049 10.76 53.1649 10.57 53.2849C10.38 53.4049 10.27 53.4649 10.57 53.9549C10.87 54.4449 10.9 54.3849 11.17 54.2549H11.13Z" fill="#FAFDFF"/>
<path d="M11.52 52.5949C11.77 52.4449 11.95 52.4149 12.25 52.9649C12.55 53.5149 12.43 53.6549 12.17 53.8049C11.91 53.9549 11.73 53.9849 11.44 53.4449C11.15 52.9049 11.28 52.7349 11.52 52.5949ZM12.1 53.6849C12.33 53.5449 12.37 53.4349 12.1 53.0349C11.83 52.6349 11.73 52.5949 11.53 52.7149C11.33 52.8349 11.23 52.8949 11.53 53.3849C11.83 53.8749 11.87 53.8149 12.1 53.6849Z" fill="#FAFDFF"/>
<path d="M12.5 52.015C12.74 51.865 12.93 51.825 13.23 52.385C13.53 52.945 13.4 53.065 13.14 53.225C12.88 53.385 12.71 53.405 12.41 52.865C12.11 52.325 12.25 52.165 12.5 52.015ZM13.08 53.105C13.3 52.975 13.34 52.855 13.08 52.455C12.82 52.055 12.72 52.015 12.52 52.135C12.32 52.255 12.22 52.315 12.52 52.805C12.82 53.295 12.85 53.245 13.08 53.115V53.105Z" fill="#FAFDFF"/>
<path d="M15.05 50.535C15.3 50.385 15.48 50.345 15.78 50.905C16.08 51.465 15.96 51.595 15.69 51.745C15.42 51.895 15.26 51.925 14.97 51.385C14.68 50.845 14.8 50.675 15.05 50.535ZM15.63 51.615C15.86 51.495 15.89 51.375 15.63 50.975C15.37 50.575 15.27 50.535 15.07 50.655C14.87 50.775 14.77 50.835 15.07 51.325C15.37 51.815 15.4 51.755 15.63 51.615Z" fill="#FAFDFF"/>
<path d="M16.02 50.015C16.27 49.865 16.46 49.825 16.76 50.385C17.06 50.945 16.93 51.075 16.67 51.225C16.41 51.375 16.23 51.405 15.94 50.865C15.65 50.325 15.78 50.105 16.02 50.015ZM16.61 51.105C16.83 50.965 16.87 50.855 16.61 50.455C16.35 50.055 16.24 50.015 16.05 50.135C15.86 50.255 15.75 50.315 16.05 50.805C16.35 51.295 16.38 51.185 16.61 51.015V51.105Z" fill="#FAFDFF"/>
<path d="M17 49.3948C17.25 49.2448 17.43 49.2048 17.73 49.7748C18.03 50.3448 17.9 50.4548 17.65 50.6048C17.4 50.7548 17.21 50.7948 16.92 50.2448C16.63 49.6948 16.76 49.5348 17 49.3948ZM17.58 50.4848C17.81 50.3448 17.85 50.2348 17.63 49.8348C17.41 49.4348 17.26 49.3948 17.06 49.5148C16.86 49.6348 16.76 49.6948 17.06 50.1848C17.36 50.6748 17.35 50.6148 17.58 50.4848Z" fill="#FAFDFF"/>
<path d="M17.97 48.825C18.22 48.675 18.41 48.635 18.71 49.195C19.01 49.755 18.88 49.885 18.62 50.035C18.36 50.185 18.18 50.225 17.89 49.675C17.6 49.125 17.73 49.015 17.97 48.825ZM18.56 49.915C18.78 49.785 18.82 49.665 18.56 49.265C18.3 48.865 18.2 48.835 18 48.945C17.8 49.055 17.7 49.125 18 49.615C18.3 50.105 18.33 50.015 18.56 49.915Z" fill="#FAFDFF"/>
<path d="M19.92 47.6847C20.17 47.5447 20.35 47.5047 20.65 48.0647C20.95 48.6247 20.82 48.7447 20.56 48.8947C20.3 49.0447 20.13 49.0847 19.84 48.5447C19.55 48.0047 19.67 47.8347 19.92 47.6847ZM20.5 48.7747C20.72 48.6447 20.76 48.5347 20.5 48.1247C20.24 47.7147 20.13 47.6947 19.93 47.8147C19.73 47.9347 19.63 47.9947 19.93 48.4847C20.23 48.9747 20.27 48.9147 20.5 48.7747Z" fill="#FAFDFF"/>
<path d="M20.89 47.1149C21.14 46.9749 21.33 46.9349 21.63 47.4949C21.93 48.0549 21.8 48.1749 21.54 48.3349C21.28 48.4949 21.1 48.5149 20.81 47.9749C20.52 47.4349 20.65 47.2649 20.89 47.1149ZM21.47 48.2049C21.7 48.0749 21.74 47.9649 21.47 47.5549C21.2 47.1449 21.1 47.1249 20.91 47.2449C20.72 47.3649 20.61 47.4249 20.91 47.9149C21.21 48.4049 21.25 48.3449 21.47 48.2049Z" fill="#FAFDFF"/>
<path d="M21.87 46.555C22.12 46.405 22.3 46.365 22.6 46.925C22.9 47.485 22.77 47.605 22.52 47.765C22.27 47.925 22.08 47.945 21.79 47.405C21.5 46.865 21.62 46.695 21.87 46.555ZM22.45 47.635C22.68 47.505 22.71 47.395 22.5 46.985C22.29 46.575 22.13 46.555 21.93 46.675C21.73 46.795 21.63 46.855 21.93 47.335C22.23 47.815 22.22 47.775 22.45 47.635Z" fill="#FAFDFF"/>
<path d="M22.84 46.0148C23.09 45.8748 23.28 45.8348 23.58 46.3948C23.88 46.9548 23.75 47.0748 23.49 47.2348C23.23 47.3948 23.05 47.4148 22.76 46.8748C22.47 46.3348 22.6 46.1248 22.84 46.0148ZM23.43 47.1148C23.65 46.9748 23.69 46.8648 23.43 46.4648C23.17 46.0648 23.06 46.0348 22.87 46.1448C22.68 46.2548 22.57 46.3248 22.87 46.8148C23.17 47.3048 23.17 47.2048 23.43 47.0748V47.1148Z" fill="#FAFDFF"/>
<path d="M24.86 44.805C25.11 44.655 25.3 44.615 25.6 45.185C25.9 45.755 25.77 45.865 25.51 46.015C25.25 46.165 25.07 46.195 24.78 45.655C24.49 45.115 24.62 44.945 24.86 44.805ZM25.44 45.895C25.67 45.765 25.71 45.645 25.44 45.245C25.17 44.845 25.07 44.815 24.87 44.925C24.67 45.035 24.58 45.105 24.87 45.595C25.16 46.085 25.22 46.015 25.44 45.895Z" fill="#FAFDFF"/>
<path d="M25.84 44.2345C26.08 44.0845 26.27 44.0546 26.57 44.6146C26.87 45.1746 26.75 45.2945 26.48 45.4445C26.21 45.5945 26.04 45.6246 25.76 45.0846C25.48 44.5446 25.59 44.3745 25.84 44.2345ZM26.42 45.3245C26.65 45.1945 26.68 45.0745 26.42 44.6745C26.16 44.2745 26.06 44.2445 25.86 44.3545C25.66 44.4645 25.56 44.5346 25.86 45.0246C26.16 45.5146 26.17 45.4545 26.42 45.3245Z" fill="#FAFDFF"/>
<path d="M26.81 43.6647C27.06 43.5147 27.25 43.4847 27.55 44.0447C27.85 44.6047 27.72 44.7247 27.46 44.8747C27.2 45.0247 27.02 45.0647 26.73 44.5147C26.44 43.9647 26.57 43.8047 26.81 43.6647ZM27.39 44.7547C27.62 44.6247 27.66 44.5047 27.44 44.1047C27.22 43.7047 27.07 43.6647 26.88 43.7847C26.69 43.9047 26.58 43.9647 26.88 44.4547C27.18 44.9447 27.17 44.8847 27.39 44.7547Z" fill="#FAFDFF"/>
<path d="M27.79 43.0949C28.04 42.9449 28.22 42.9149 28.52 43.4649C28.82 44.0149 28.69 44.1549 28.43 44.3049C28.17 44.4549 28 44.4949 27.71 43.9449C27.42 43.3949 27.55 43.2349 27.79 43.0949ZM28.37 44.1849C28.6 44.0549 28.64 43.9449 28.42 43.5349C28.2 43.1249 28.05 43.1049 27.85 43.2149C27.65 43.3249 27.55 43.3949 27.85 43.8849C28.15 44.3749 28.17 44.3149 28.37 44.1849Z" fill="#FAFDFF"/>
<path d="M30.75 45.1547C30.9687 45.5212 31.0388 45.9576 30.9458 46.3742C30.8528 46.7908 30.6038 47.1559 30.25 47.3947C30.0658 47.4889 29.8643 47.5448 29.6578 47.5589C29.4514 47.5731 29.2442 47.5452 29.0488 47.4769C28.8534 47.4087 28.6739 47.3015 28.5211 47.1619C28.3684 47.0223 28.2455 46.8531 28.16 46.6647C27.9413 46.2981 27.8713 45.8618 27.9642 45.4452C28.0572 45.0286 28.3062 44.6634 28.66 44.4247C28.8443 44.3304 29.0457 44.2745 29.2522 44.2604C29.4587 44.2463 29.6659 44.2742 29.8612 44.3424C30.0566 44.4107 30.2361 44.5178 30.3889 44.6574C30.5417 44.7971 30.6645 44.9662 30.75 45.1547Z" fill="#BF672B"/>
<path opacity="0.6" d="M32.41 44.2848C32.6263 44.652 32.695 45.0876 32.6021 45.5035C32.5093 45.9194 32.2619 46.2845 31.91 46.5249C31.7255 46.6177 31.5242 46.6724 31.3181 46.6858C31.112 46.6992 30.9053 46.671 30.7103 46.6029C30.5153 46.5348 30.336 46.4282 30.183 46.2894C30.0301 46.1505 29.9066 45.9824 29.82 45.7948C29.5988 45.4289 29.5274 44.9918 29.6205 44.5745C29.7137 44.1572 29.9642 43.792 30.32 43.5549C30.504 43.4591 30.7056 43.4021 30.9124 43.3872C31.1193 43.3723 31.327 43.3999 31.5227 43.4683C31.7185 43.5367 31.8982 43.6444 32.0508 43.7848C32.2034 43.9253 32.3257 44.0954 32.41 44.2848Z" fill="#A6DAE8"/>
<g style="mix-blend-mode:multiply" opacity="0.3">
<path d="M24.82 29.4948L16.82 34.1647L17.05 56.1647L33.86 46.3547C33.9784 46.277 34.0615 46.1559 34.0914 46.0175C34.1213 45.8791 34.0957 45.7344 34.02 45.6148L25.5 29.7148C25.4704 29.6552 25.4291 29.6021 25.3787 29.5586C25.3282 29.5152 25.2696 29.4823 25.2063 29.4618C25.1429 29.4413 25.0761 29.4336 25.0098 29.4393C24.9435 29.445 24.879 29.4638 24.82 29.4948Z" fill="#2C5871"/>
</g>
<path d="M52.38 26.5346C52.3807 27.3099 52.0811 28.0554 51.5442 28.6147C51.0073 29.1739 50.2747 29.5036 49.5 29.5346H27.66C26.8854 29.5036 26.1528 29.1739 25.6159 28.6147C25.0789 28.0554 24.7794 27.3099 24.78 26.5346V17.0146C24.7794 16.2394 25.0789 15.4939 25.6159 14.9346C26.1528 14.3754 26.8854 14.0457 27.66 14.0146H49.5C50.2747 14.0457 51.0073 14.3754 51.5442 14.9346C52.0811 15.4939 52.3807 16.2394 52.38 17.0146V26.5346Z" fill="white"/>
<path d="M29.51 18.0747H32.72C34.33 18.0747 34.92 18.9947 34.92 20.0747C34.9572 20.4233 34.8703 20.7738 34.6746 21.0646C34.4789 21.3554 34.1869 21.5679 33.85 21.6647C34.2167 21.7523 34.5392 21.9697 34.7579 22.2767C34.9767 22.5837 35.0769 22.9596 35.04 23.3347C35.04 24.7147 34.39 25.5247 32.75 25.5247H29.51V18.0747ZM32.63 21.0147C32.8383 20.992 33.0308 20.8932 33.1707 20.7373C33.3106 20.5813 33.388 20.3792 33.388 20.1697C33.388 19.9602 33.3106 19.7581 33.1707 19.6021C33.0308 19.4462 32.8383 19.3474 32.63 19.3247H31V21.0147H32.63ZM32.69 24.2547C33.14 24.2547 33.55 24.0547 33.55 23.2547C33.55 22.7047 33.32 22.2047 32.69 22.2047H31V24.2047L32.69 24.2547Z" fill="#FF7F00"/>
<path d="M35.94 18.0747H37.43V22.2647C37.43 23.9547 37.83 24.2647 38.94 24.2647C40.05 24.2647 40.39 23.9147 40.39 22.2647V18.0747H41.89V22.2647C41.89 25.5447 40.23 25.5647 38.94 25.5647C37.49 25.5647 35.94 25.6447 35.94 22.2647V18.0747Z" fill="#FF7F00"/>
<path d="M44.35 18.0747L45.87 21.6447L47.54 18.0747H49.17L46.61 23.2047V25.5147H45.11V23.2047L42.74 18.0747H44.35Z" fill="#FF7F00"/>
<path d="M45.57 24.0147C45.03 25.0147 45.4 26.5347 45.57 27.5647C45.89 29.3947 46.4 31.1847 46.83 33.0047C47.3579 35.2777 47.5433 37.6169 47.38 39.9447C46.8262 38.7307 46.1314 37.5862 45.31 36.5347C44.6 35.6147 43.77 33.9747 42.49 33.7547C42.2583 33.7189 42.0212 33.7601 41.8153 33.8721C41.6093 33.9842 41.4458 34.1607 41.35 34.3747C41.13 35.0147 41.86 35.8547 42.17 36.3747C43.4951 38.4311 44.5663 40.6406 45.36 42.9547C45.57 43.6647 45.69 44.4047 45.91 45.1047C46.59 45.2147 47.15 46.3447 47.52 46.8347C48.11 47.6147 48.74 48.3447 49.33 49.1247C49.92 49.9047 50.68 51.6147 51.77 51.6547C52.8079 51.5461 53.8212 51.2691 54.77 50.8347C56.39 50.2547 58.1 49.7247 59.7 49.0047C60.41 48.6847 61.01 48.5447 61.09 47.8147C61.126 46.9658 61.0825 46.1154 60.96 45.2747C60.8183 43.9994 60.7415 42.7178 60.73 41.4347C60.73 40.0447 60.97 38.6647 61.05 37.2747C61.2123 35.5762 60.9725 33.8633 60.35 32.2747C59.86 31.2147 58.98 30.8747 58.21 31.8847C57.74 32.5047 57.55 32.3147 57.44 31.5847C57.35 31.0147 57.5 30.2147 57.09 29.7347C56.6527 29.4105 56.1328 29.2164 55.59 29.1747C54.85 29.0747 54.76 29.3847 54.27 29.8347C53.78 30.2847 53.68 30.0147 53.18 29.6747C52.9678 29.5291 52.7204 29.443 52.4636 29.4254C52.2069 29.4078 51.9501 29.4594 51.72 29.5747C51.15 29.8747 51.19 30.4847 50.84 30.9647C50.49 31.4447 50.27 30.9647 50.05 30.3747C49.3 28.2447 48.7 26.0647 47.82 23.9947C47.55 23.3547 47.43 22.4147 46.47 22.8147C45.68 23.1447 45.94 24.1047 45.47 24.5347L45.57 24.0147Z" fill="#EFC184"/>
<path opacity="0.5" d="M42.78 33.9146C43.6 34.3546 44.15 35.6446 44.64 36.4046C45.2485 37.5518 45.9161 38.6666 46.64 39.7446C47.45 40.7446 48.09 40.5046 48.24 39.2546C48.395 37.8598 48.4151 36.4533 48.3 35.0546C48.0811 32.4682 47.6902 29.8991 47.13 27.3646C46.98 26.6346 46.74 25.9246 46.6 25.2046C46.54 24.8946 46.54 23.9546 46.13 23.8546C44.97 23.5846 46.21 29.2246 46.33 29.8546C46.72 31.7646 47.16 33.5746 47.33 35.5046C47.38 36.0046 47.89 38.8146 47.33 39.1546C46.77 39.4946 45.64 37.1546 45.4 36.7946C44.7 35.7046 43.82 34.2546 42.61 33.6746L42.78 33.9146Z" fill="#D6944C"/>
<path opacity="0.5" d="M41.55 34.7148C41.55 34.7148 41.55 34.6248 41.43 34.7148C42.07 37.8248 44.43 40.2848 45.21 43.3848C45.2791 43.9267 45.4169 44.4577 45.62 44.9648C45.9 45.3948 46.56 45.7348 46.91 46.1648C47.84 47.3248 48.58 48.6348 49.46 49.8348C50.14 50.7548 50.57 51.6148 51.8 51.5248C52.16 51.5248 53.44 51.5248 53.68 51.3148C53.92 51.1048 53.3 50.9248 53.1 50.8348C52.2825 50.4293 51.5114 49.9364 50.8 49.3648C49.5536 48.2501 48.4214 47.014 47.42 45.6748C46.7495 44.9466 46.1993 44.1162 45.79 43.2148C45.262 41.6147 44.6443 40.0455 43.94 38.5148C43.4065 37.5267 42.9388 36.5045 42.54 35.4548C42.43 35.1548 41.69 33.7248 41.42 34.7148H41.55Z" fill="#D6944C"/>
<path d="M62.66 51.3546L50.35 54.5146L49.43 50.8746L61.75 47.7046L62.66 51.3546Z" fill="white"/>
<path opacity="0.5" d="M59.52 48.2348C59.85 49.2348 57.8 51.1848 57.07 51.8148C55.73 52.9448 54.22 53.8148 52.83 54.8948C54.93 54.3148 57.02 53.8948 59.11 53.3648C59.78 53.1948 60.41 53.1148 61.11 52.9548C61.81 52.7948 62.21 52.4048 62.8 52.3148C62.1217 50.9591 61.7788 49.4605 61.8 47.9448C61.09 47.8148 60.05 48.3248 59.44 48.1648L59.52 48.2348Z" fill="#B9D4DD"/>
<path d="M65.13 59.7946L52.77 63.3646L49.43 54.4546L62.83 50.6646L65.13 59.7946Z" fill="#041323"/>
</svg>
