<svg width="22" height="23" viewBox="0 0 22 23" fill="none" xmlns="http://www.w3.org/2000/svg">
<path d="M22 11.51C22 17.0673 17.8818 21.6616 12.5319 22.4072C12.0317 22.4766 11.5199 22.5128 11.0004 22.5128C10.4007 22.5128 9.81186 22.465 9.23841 22.3725C4.00028 21.529 0 16.9863 0 11.51C0 5.433 4.9252 0.506348 10.9996 0.506348C17.074 0.506348 22 5.433 22 11.51Z" fill="#1877F2"/>
<path d="M12.5318 9.34132V11.7383H15.4962L15.0268 14.9673H12.5318V22.4066C12.0316 22.476 11.5198 22.5122 11.0003 22.5122C10.4006 22.5122 9.81176 22.4644 9.23831 22.3719V14.9673H6.50439V11.7383H9.23831V8.80548C9.23831 6.98594 10.7128 5.51025 12.5326 5.51025V5.5118C12.538 5.5118 12.5426 5.51025 12.548 5.51025H15.4969V8.30279H13.57C12.9973 8.30279 12.5326 8.7677 12.5326 9.34055L12.5318 9.34132Z" fill="white"/>
</svg>
