<svg width="22" height="23" viewBox="0 0 22 23" fill="none" xmlns="http://www.w3.org/2000/svg">
<path d="M22 11.01C22 16.5673 17.8818 21.1616 12.5319 21.9072C12.0317 21.9766 11.5199 22.0128 11.0004 22.0128C10.4007 22.0128 9.81186 21.965 9.23841 21.8725C4.00028 21.029 0 16.4863 0 11.01C0 4.933 4.9252 0.00634766 10.9996 0.00634766C17.074 0.00634766 22 4.933 22 11.01Z" fill="#1877F2"/>
<path d="M12.5319 8.84132V11.2383H15.4963L15.0269 14.4673H12.5319V21.9066C12.0317 21.976 11.5199 22.0122 11.0004 22.0122C10.4007 22.0122 9.81188 21.9644 9.23843 21.8719V14.4673H6.50452V11.2383H9.23843V8.30548C9.23843 6.48594 10.7129 5.01025 12.5327 5.01025V5.0118C12.5381 5.0118 12.5427 5.01025 12.5481 5.01025H15.4971V7.80279H13.5701C12.9975 7.80279 12.5327 8.2677 12.5327 8.84055L12.5319 8.84132Z" fill="white"/>
</svg>
