<svg width="24" height="20" viewBox="0 0 24 20" fill="none" xmlns="http://www.w3.org/2000/svg">
<path d="M0 4.19798C0 2.95356 0.363896 1.89109 1.12755 1.12744L2.45563 2.45553C0.977472 3.92838 2.26837 8.50762 6.47708 12.7203C10.6858 16.933 15.2677 18.2226 16.7445 16.7471L18.0726 18.0752C15.5811 20.5667 9.9062 18.799 5.15563 14.0471C1.86065 10.7508 0 7.01087 0 4.19798Z" fill="#009A46"/>
<path d="M8.37494 19.2201C7.13052 19.2201 6.06805 18.8563 5.30307 18.0926L6.63116 16.7645C8.10666 18.24 12.6859 16.9491 16.8986 12.7378C21.1113 8.52639 22.3995 3.94715 20.924 2.47164L22.2521 1.14355C24.7449 3.63505 22.9759 9.30996 18.224 14.0605C14.9277 17.3608 11.1878 19.2201 8.37494 19.2201Z" fill="#FF5805"/>
<path d="M18.6636 12.1598C17.8574 9.83827 16.2106 7.35741 14.0259 5.17403C9.27535 0.422133 3.60043 -1.34688 1.10894 1.14594C0.932304 1.3239 1.08503 1.7635 1.45159 2.13005C1.81814 2.49661 2.25773 2.64801 2.43437 2.47137C3.9112 0.995867 8.49045 2.28677 12.7018 6.49946C14.6939 8.49159 16.1787 10.7161 16.8946 12.7747C17.5214 14.5795 17.4604 16.0351 16.7299 16.7656C16.5519 16.9422 16.706 17.3831 17.0712 17.7484C17.4364 18.1136 17.8774 18.2676 18.0553 18.0897C19.3316 16.8134 19.5481 14.7044 18.6636 12.1598Z" fill="#F5AFCB"/>
<path d="M22.2494 1.14611C20.9705 -0.132841 18.8642 -0.349319 16.3169 0.536515C13.9967 1.34134 11.5145 2.98949 9.33114 5.17287C4.58057 9.92344 2.81156 15.5984 5.30305 18.0912C5.48102 18.2678 5.92061 18.1151 6.28717 17.7499C6.65372 17.3846 6.80645 16.9437 6.62848 16.7657C5.14899 15.2902 6.44388 10.711 10.6566 6.4983C12.6487 4.50617 14.8733 3.02137 16.9318 2.30553C18.7367 1.68 20.1922 1.73976 20.924 2.47021C21.1007 2.64685 21.5416 2.49412 21.9068 2.12756C22.272 1.76101 22.4261 1.32274 22.2494 1.14611Z" fill="#FF9B00"/>
</svg>
