<svg width="25" height="25" viewBox="0 0 25 25" fill="none" xmlns="http://www.w3.org/2000/svg">
<path fill-rule="evenodd" clip-rule="evenodd" d="M11.9948 0.215706C12.3141 0.0615614 12.6863 0.0615614 13.0056 0.215706L24.2431 5.64071C24.8213 5.91983 25.0638 6.61481 24.7846 7.19299C24.5243 7.73235 23.902 7.97954 23.3502 7.78372V22.5751H23.7377C24.3798 22.5751 24.9002 23.0956 24.9002 23.7376C24.9002 24.3796 24.3798 24.9001 23.7377 24.9001H1.26274C0.620711 24.9001 0.100242 24.3796 0.100242 23.7376C0.100242 23.0956 0.620711 22.5751 1.26274 22.5751H1.65024V7.78372C1.09849 7.97954 0.47623 7.73235 0.215851 7.19299C-0.0632714 6.61481 0.179164 5.91983 0.757347 5.64071L11.9948 0.215706ZM14.05 6.3001C14.05 7.15614 13.356 7.8501 12.5 7.8501C11.6439 7.8501 10.95 7.15614 10.95 6.3001C10.95 5.44406 11.6439 4.7501 12.5 4.7501C13.356 4.7501 14.05 5.44406 14.05 6.3001ZM8.62498 12.1126C8.62498 11.4706 8.10451 10.9501 7.46248 10.9501C6.82044 10.9501 6.29998 11.4706 6.29998 12.1126V20.6376C6.29998 21.2796 6.82044 21.8001 7.46248 21.8001C8.10451 21.8001 8.62498 21.2796 8.62498 20.6376V12.1126ZM13.6625 12.1126C13.6625 11.4706 13.142 10.9501 12.5 10.9501C11.8579 10.9501 11.3375 11.4706 11.3375 12.1126V20.6376C11.3375 21.2796 11.8579 21.8001 12.5 21.8001C13.142 21.8001 13.6625 21.2796 13.6625 20.6376V12.1126ZM18.7 12.1126C18.7 11.4706 18.1795 10.9501 17.5375 10.9501C16.8954 10.9501 16.375 11.4706 16.375 12.1126V20.6376C16.375 21.2796 16.8954 21.8001 17.5375 21.8001C18.1795 21.8001 18.7 21.2796 18.7 20.6376V12.1126Z" fill="#0570DE"/>
</svg>
