<svg width="22" height="23" viewBox="0 0 22 23" fill="none" xmlns="http://www.w3.org/2000/svg">
<path d="M11.025 0.513184H10.975C4.91365 0.513184 0 5.42828 0 11.4914V11.5415C0 17.6046 4.91365 22.5197 10.975 22.5197H11.025C17.0863 22.5197 22 17.6046 22 11.5415V11.4914C22 5.42828 17.0863 0.513184 11.025 0.513184Z" fill="url(#paint0_linear_28836_53437)"/>
<path d="M14.4041 4.99023H7.59668C5.71601 4.99023 4.18604 6.52066 4.18604 8.40188V14.6315C4.18604 16.5127 5.71601 18.0432 7.59668 18.0432H14.4041C16.2848 18.0432 17.8147 16.5127 17.8147 14.6315V8.40188C17.8147 6.52066 16.2848 4.99023 14.4041 4.99023ZM5.3892 8.40188C5.3892 7.18448 6.37964 6.19376 7.59668 6.19376H14.4041C15.6211 6.19376 16.6116 7.18448 16.6116 8.40188V14.6315C16.6116 15.8489 15.6211 16.8396 14.4041 16.8396H7.59668C6.37964 16.8396 5.3892 15.8489 5.3892 14.6315V8.40188Z" fill="white"/>
<path d="M11.0006 14.6886C12.7495 14.6886 14.1731 13.2654 14.1731 11.5152C14.1731 9.76505 12.7502 8.3418 11.0006 8.3418C9.25096 8.3418 7.82812 9.76505 7.82812 11.5152C7.82812 13.2654 9.25096 14.6886 11.0006 14.6886ZM11.0006 9.54609C12.0866 9.54609 12.9699 10.4296 12.9699 11.516C12.9699 12.6023 12.0866 13.4859 11.0006 13.4859C9.91459 13.4859 9.03129 12.6023 9.03129 11.516C9.03129 10.4296 9.91459 9.54609 11.0006 9.54609Z" fill="white"/>
<path d="M14.4666 8.85753C14.9375 8.85753 15.3214 8.47434 15.3214 8.00249C15.3214 7.53065 14.9383 7.14746 14.4666 7.14746C13.9949 7.14746 13.6118 7.53065 13.6118 8.00249C13.6118 8.47434 13.9949 8.85753 14.4666 8.85753Z" fill="white"/>
<defs>
<linearGradient id="paint0_linear_28836_53437" x1="3.2141" y1="19.3046" x2="18.7905" y2="3.73359" gradientUnits="userSpaceOnUse">
<stop stop-color="#FAAD4F"/>
<stop offset="0.35" stop-color="#DD2A7B"/>
<stop offset="0.62" stop-color="#9537B0"/>
<stop offset="1" stop-color="#515BD4"/>
</linearGradient>
</defs>
</svg>
