<svg width="22" height="23" viewBox="0 0 22 23" fill="none" xmlns="http://www.w3.org/2000/svg">
<path d="M11.025 0.0131836H10.975C4.91365 0.0131836 0 4.92828 0 10.9914V11.0415C0 17.1046 4.91365 22.0197 10.975 22.0197H11.025C17.0863 22.0197 22 17.1046 22 11.0415V10.9914C22 4.92828 17.0863 0.0131836 11.025 0.0131836Z" fill="url(#paint0_linear_32075_34950)"/>
<path d="M14.404 4.49023H7.59656C5.71589 4.49023 4.18591 6.02066 4.18591 7.90188V14.1315C4.18591 16.0127 5.71589 17.5432 7.59656 17.5432H14.404C16.2846 17.5432 17.8146 16.0127 17.8146 14.1315V7.90188C17.8146 6.02066 16.2846 4.49023 14.404 4.49023ZM5.38908 7.90188C5.38908 6.68448 6.37952 5.69376 7.59656 5.69376H14.404C15.621 5.69376 16.6114 6.68448 16.6114 7.90188V14.1315C16.6114 15.3489 15.621 16.3396 14.404 16.3396H7.59656C6.37952 16.3396 5.38908 15.3489 5.38908 14.1315V7.90188Z" fill="white"/>
<path d="M11.0007 14.1886C12.7496 14.1886 14.1732 12.7654 14.1732 11.0152C14.1732 9.26505 12.7504 7.8418 11.0007 7.8418C9.25109 7.8418 7.82825 9.26505 7.82825 11.0152C7.82825 12.7654 9.25109 14.1886 11.0007 14.1886ZM11.0007 9.04609C12.0867 9.04609 12.97 9.92965 12.97 11.016C12.97 12.1023 12.0867 12.9859 11.0007 12.9859C9.91472 12.9859 9.03142 12.1023 9.03142 11.016C9.03142 9.92965 9.91472 9.04609 11.0007 9.04609Z" fill="white"/>
<path d="M14.4665 8.35753C14.9374 8.35753 15.3213 7.97434 15.3213 7.50249C15.3213 7.03065 14.9382 6.64746 14.4665 6.64746C13.9948 6.64746 13.6117 7.03065 13.6117 7.50249C13.6117 7.97434 13.9948 8.35753 14.4665 8.35753Z" fill="white"/>
<defs>
<linearGradient id="paint0_linear_32075_34950" x1="3.2141" y1="18.8046" x2="18.7905" y2="3.23359" gradientUnits="userSpaceOnUse">
<stop stop-color="#FAAD4F"/>
<stop offset="0.35" stop-color="#DD2A7B"/>
<stop offset="0.62" stop-color="#9537B0"/>
<stop offset="1" stop-color="#515BD4"/>
</linearGradient>
</defs>
</svg>
