<svg width="31" height="31" viewBox="0 0 31 31" fill="none" xmlns="http://www.w3.org/2000/svg">
<mask id="mask0_25711_2165" style="mask-type:luminance" maskUnits="userSpaceOnUse" x="0" y="0" width="31" height="31">
<path d="M0 0H31V31H0V0Z" fill="white"/>
</mask>
<g mask="url(#mask0_25711_2165)">
<path fill-rule="evenodd" clip-rule="evenodd" d="M25.5119 3.65189C31.977 8.8132 32.8508 18.2768 27.5041 25.0312C22.1795 31.9399 12.4561 33.0633 5.75421 27.2852C-0.97736 21.3457 -1.94747 11.2433 3.62142 4.97343C9.21256 -1.15699 19.0322 -1.64155 25.5119 3.65189Z" fill="#4CD5F7"/>
</g>
<path fill-rule="evenodd" clip-rule="evenodd" d="M25.2825 5.15702C30.0367 8.95273 30.6809 15.9275 26.7487 20.9052C22.8238 25.9857 15.6701 26.9549 10.7307 22.6966C5.76902 18.3282 5.05809 10.7441 9.16071 6.13348C13.2781 1.61826 20.5059 1.25851 25.2825 5.15702Z" fill="#2998E3"/>
<path fill-rule="evenodd" clip-rule="evenodd" d="M24.8673 6.5885C28.474 9.47382 28.9628 14.7746 25.9781 18.5556C23.0086 22.4174 17.5805 23.0488 13.8333 19.8111C10.0787 16.4926 9.53071 10.8394 12.641 7.33002C15.7661 3.89405 21.2462 3.6224 24.8673 6.5885Z" fill="#3A5CE9"/>
</svg>
