<svg width="31" height="31" viewBox="0 0 31 31" fill="none" xmlns="http://www.w3.org/2000/svg">
<mask id="mask0_25711_5735" style="mask-type:luminance" maskUnits="userSpaceOnUse" x="0" y="0" width="31" height="31">
<path d="M0 0H31V30.4935H0V0Z" fill="white"/>
</mask>
<g mask="url(#mask0_25711_5735)">
<path d="M27.7792 0H1.61038C0.72465 0 0 0.726018 0 1.61342V4.51754C0 5.40494 0.72465 6.13096 1.61038 6.13096H27.6987C28.5844 6.13096 29.3091 5.40494 29.3091 4.51754V1.61342C29.3896 0.726018 28.6649 0 27.7792 0ZM27.7792 16.2148H1.61038C0.72465 16.2148 0 16.9408 0 17.8282V20.7323C0 21.6197 0.72465 22.3457 1.61038 22.3457H27.6987C28.5844 22.3457 29.3091 21.6197 29.3091 20.7323V17.8282C29.3896 16.9408 28.6649 16.2148 27.7792 16.2148ZM16.3455 24.3625H1.61038C0.72465 24.3625 0 25.0885 0 25.9759V28.88C0 29.7674 0.72465 30.4935 1.61038 30.4935H16.3455C17.2312 30.4935 17.9558 29.7674 17.9558 28.88V25.9759C17.9558 25.0885 17.2312 24.3625 16.3455 24.3625ZM29.3896 8.14773H1.61038C0.72465 8.14773 0 8.87375 0 9.7611V12.6653C0 13.5526 0.72465 14.2787 1.61038 14.2787H29.3896C30.2754 14.2787 31 13.5526 31 12.6653V9.7611C31 8.87375 30.2754 8.14773 29.3896 8.14773Z" fill="#0BA4DB"/>
</g>
</svg>
