<svg width="114" height="104" viewBox="0 0 114 104" fill="none" xmlns="http://www.w3.org/2000/svg">
<path d="M5.04963 101.673L5.34306 101.038L5.04963 101.673ZM2.06553 98.9692L2.67569 98.6261L2.06553 98.9692ZM112.107 98.9692L111.497 98.6261L112.107 98.9692ZM109.123 101.673L108.829 101.038L109.123 101.673ZM109.123 1.95955L108.829 2.59508L109.123 1.95955ZM112.107 4.66359L111.497 5.00668L112.107 4.66359ZM5.04963 1.95955L5.34306 2.59508L5.04963 1.95955ZM2.06553 4.66359L2.67569 5.00668L2.06553 4.66359ZM0.848254 73.7301C0.563285 73.9914 0.544057 74.4342 0.805307 74.7191C1.06656 75.0041 1.50935 75.0233 1.79432 74.7621L0.848254 73.7301ZM25.7956 51.8089L25.3226 51.2929L25.7956 51.8089ZM41.4295 51.8955L41.9088 51.3854L41.4295 51.8955ZM64.2165 73.3036L63.7372 73.8138L64.2165 73.3036ZM79.9438 73.3036L79.4645 72.7934L79.9438 73.3036ZM86.2657 67.3643L86.745 67.8745L86.2657 67.3643ZM101.9 67.2776L101.427 67.7936L101.9 67.2776ZM112.378 77.8334C112.663 78.0947 113.106 78.0755 113.367 77.7905C113.628 77.5055 113.609 77.0627 113.324 76.8015L112.378 77.8334ZM91.9128 63.0596L92.1172 63.7291L91.9128 63.0596ZM96.1949 63.0359L95.998 63.7076L96.1949 63.0359ZM69.9232 77.6492L69.7211 78.3194L69.9232 77.6492ZM74.2371 77.6492L74.0349 76.9791L74.2371 77.6492ZM31.5004 47.5671L31.3035 46.8954L31.5004 47.5671ZM35.7824 47.5909L35.578 48.2603L35.7824 47.5909ZM83.5302 27.6535V26.9535C83.1436 26.9535 82.8302 27.2669 82.8302 27.6535H83.5302ZM83.7367 27.6535H84.4367C84.4367 27.2669 84.1233 26.9535 83.7367 26.9535V27.6535ZM83.7367 27.8541V28.5541C84.1233 28.5541 84.4367 28.2407 84.4367 27.8541H83.7367ZM83.5302 27.8541H82.8302C82.8302 28.2407 83.1436 28.5541 83.5302 28.5541V27.8541ZM12.2466 1.98516H101.926V0.585156H12.2466V1.98516ZM112.151 11.1852V92.4477H113.551V11.1852H112.151ZM101.926 101.648H12.2466V103.048H101.926V101.648ZM2.02129 92.4477V11.1851H0.621289V92.4477H2.02129ZM12.2466 101.648C10.324 101.648 8.92027 101.647 7.81348 101.565C6.71306 101.484 5.9646 101.325 5.34306 101.038L4.7562 102.309C5.59533 102.696 6.53326 102.874 7.71011 102.961C8.88061 103.048 10.345 103.048 12.2466 103.048V101.648ZM0.621289 92.4477C0.621289 94.1676 0.620627 95.504 0.717148 96.5745C0.814611 97.6554 1.01528 98.5296 1.45538 99.3123L2.67569 98.6261C2.37155 98.0852 2.20009 97.4314 2.11149 96.4487C2.02195 95.4557 2.02129 94.1931 2.02129 92.4477H0.621289ZM5.34306 101.038C4.18349 100.502 3.25373 99.6541 2.67569 98.6261L1.45538 99.3123C2.18665 100.613 3.34611 101.658 4.7562 102.309L5.34306 101.038ZM112.151 92.4477C112.151 94.1931 112.15 95.4557 112.061 96.4487C111.972 97.4314 111.801 98.0852 111.497 98.6261L112.717 99.3123C113.157 98.5296 113.358 97.6554 113.455 96.5745C113.552 95.504 113.551 94.1676 113.551 92.4477H112.151ZM101.926 103.048C103.827 103.048 105.292 103.048 106.462 102.961C107.639 102.874 108.577 102.696 109.416 102.309L108.829 101.038C108.208 101.325 107.459 101.484 106.359 101.565C105.252 101.647 103.848 101.648 101.926 101.648V103.048ZM111.497 98.6261C110.919 99.6541 109.989 100.502 108.829 101.038L109.416 102.309C110.826 101.658 111.986 100.613 112.717 99.3123L111.497 98.6261ZM101.926 1.98516C103.848 1.98516 105.252 1.9856 106.359 2.06755C107.459 2.14902 108.208 2.30812 108.829 2.59508L109.416 1.32402C108.577 0.936592 107.639 0.758495 106.462 0.671367C105.292 0.584709 103.827 0.585156 101.926 0.585156V1.98516ZM113.551 11.1852C113.551 9.46523 113.552 8.12884 113.455 7.05836C113.358 5.97742 113.157 5.10319 112.717 4.3205L111.497 5.00668C111.801 5.54757 111.972 6.20146 112.061 7.18408C112.15 8.17715 112.151 9.43976 112.151 11.1852H113.551ZM108.829 2.59508C109.989 3.13047 110.919 3.97868 111.497 5.00668L112.717 4.3205C111.986 3.02 110.826 1.97507 109.416 1.32402L108.829 2.59508ZM12.2466 0.585156C10.345 0.585156 8.88061 0.584709 7.71012 0.671367C6.53326 0.758495 5.59533 0.936592 4.7562 1.32402L5.34306 2.59508C5.9646 2.30812 6.71306 2.14902 7.81348 2.06755C8.92027 1.9856 10.3241 1.98516 12.2466 1.98516V0.585156ZM2.02129 11.1851C2.02129 9.43976 2.02195 8.17715 2.11149 7.18408C2.20009 6.20146 2.37155 5.54757 2.67569 5.00668L1.45538 4.3205C1.01528 5.10319 0.814611 5.97742 0.717148 7.05836C0.620627 8.12884 0.621289 9.46522 0.621289 11.1851H2.02129ZM4.7562 1.32402C3.34611 1.97507 2.18665 3.02 1.45538 4.3205L2.67569 5.00668C3.25373 3.97868 4.18349 3.13047 5.34306 2.59508L4.7562 1.32402ZM1.79432 74.7621L26.2686 52.3249L25.3226 51.2929L0.848254 73.7301L1.79432 74.7621ZM40.9502 52.4057L63.7372 73.8138L64.6958 72.7935L41.9088 51.3854L40.9502 52.4057ZM80.4231 73.8138L86.745 67.8745L85.7864 66.8541L79.4645 72.7934L80.4231 73.8138ZM101.427 67.7936L112.378 77.8334L113.324 76.8015L102.373 66.7617L101.427 67.7936ZM86.745 67.8745C88.1097 66.5924 89.103 65.6599 89.9509 64.9845C90.7913 64.315 91.4457 63.9341 92.1172 63.7291L91.7083 62.3901C90.8018 62.667 89.9891 63.1641 89.0786 63.8895C88.1756 64.6088 87.1344 65.5877 85.7864 66.8541L86.745 67.8745ZM102.373 66.7617C101.008 65.5102 99.9534 64.543 99.0409 63.8338C98.1208 63.1188 97.3017 62.6308 96.3917 62.3641L95.998 63.7076C96.6725 63.9053 97.3323 64.2791 98.1818 64.9392C99.0388 65.6053 100.045 66.5268 101.427 67.7936L102.373 66.7617ZM92.1172 63.7291C93.3741 63.3453 94.7358 63.3377 95.998 63.7076L96.3917 62.3641C94.8675 61.9174 93.2267 61.9264 91.7083 62.3901L92.1172 63.7291ZM63.7372 73.8138C65.1002 75.0943 66.1528 76.084 67.0653 76.8102C67.9852 77.5425 68.8061 78.0434 69.7211 78.3194L70.1254 76.9791C69.4479 76.7747 68.7867 76.3911 67.9371 75.7149C67.0801 75.0327 66.0756 74.0897 64.6958 72.7935L63.7372 73.8138ZM79.4645 72.7934C78.0848 74.0897 77.0803 75.0326 76.2232 75.7149C75.3736 76.3911 74.7125 76.7747 74.0349 76.9791L74.4393 78.3194C75.3543 78.0434 76.1752 77.5425 77.0951 76.8102C78.0076 76.0839 79.0602 75.0943 80.4231 73.8138L79.4645 72.7934ZM69.7211 78.3194C71.2531 78.7816 72.9073 78.7816 74.4393 78.3194L74.0349 76.9791C72.7666 77.3617 71.3937 77.3617 70.1254 76.9791L69.7211 78.3194ZM26.2686 52.3249C27.6505 51.058 28.6564 50.1366 29.5135 49.4705C30.3629 48.8103 31.0227 48.4365 31.6972 48.2389L31.3035 46.8954C30.3936 47.1621 29.5744 47.65 28.6544 48.3651C27.7418 49.0742 26.6876 50.0415 25.3226 51.2929L26.2686 52.3249ZM41.9088 51.3854C40.5608 50.1189 39.5196 49.14 38.6166 48.4207C37.7061 47.6954 36.8934 47.1982 35.9869 46.9214L35.578 48.2603C36.2495 48.4654 36.904 48.8463 37.7443 49.5157C38.5922 50.1912 39.5855 51.1236 40.9502 52.4057L41.9088 51.3854ZM31.6972 48.2389C32.9595 47.8689 34.3211 47.8765 35.578 48.2603L35.9869 46.9214C34.4685 46.4577 32.8278 46.4486 31.3035 46.8954L31.6972 48.2389ZM91.7924 27.7539C91.7924 31.7338 88.2093 35.0747 83.6408 35.0747V36.4747C88.8495 36.4747 93.1924 32.6336 93.1924 27.7539H91.7924ZM83.6408 35.0747C79.0723 35.0747 75.4893 31.7338 75.4893 27.7539H74.0893C74.0893 32.6336 78.4322 36.4747 83.6408 36.4747V35.0747ZM75.4893 27.7539C75.4893 23.774 79.0723 20.4331 83.6408 20.4331V19.0331C78.4322 19.0331 74.0893 22.8742 74.0893 27.7539H75.4893ZM83.6408 20.4331C88.2093 20.4331 91.7924 23.774 91.7924 27.7539H93.1924C93.1924 22.8742 88.8495 19.0331 83.6408 19.0331V20.4331ZM83.5302 28.3535H83.7367V26.9535H83.5302V28.3535ZM83.0367 27.6535V27.8541H84.4367V27.6535H83.0367ZM83.7367 27.1541H83.5302V28.5541H83.7367V27.1541ZM84.2302 27.8541V27.6535H82.8302V27.8541H84.2302Z" fill="#6A7383"/>
</svg>
