<svg width="129" height="129" viewBox="0 0 129 129" fill="none" xmlns="http://www.w3.org/2000/svg">
<rect x="0.5" y="0.5" width="128" height="128" rx="9.5" fill="#F6F8FA"/>
<rect x="0.5" y="0.5" width="128" height="128" rx="9.5" stroke="#EBEEF1"/>
<g opacity="0.35">
<path d="M41.7684 86.4637L42.0862 85.84L41.7684 86.4637ZM40.5226 85.218L41.1463 84.9002L40.5226 85.218ZM86.4621 85.218L85.8384 84.9002L86.4621 85.218ZM85.2164 86.4637L84.8986 85.84L85.2164 86.4637ZM85.2164 40.5242L84.8986 41.1479L85.2164 40.5242ZM86.4621 41.77L85.8384 42.0878L86.4621 41.77ZM41.7684 40.5242L42.0862 41.1479L41.7684 40.5242ZM40.5226 41.77L41.1463 42.0878L40.5226 41.77ZM39.7141 73.3356C39.4423 73.6105 39.4449 74.0537 39.7198 74.3255C39.9948 74.5973 40.438 74.5947 40.7098 74.3197L39.7141 73.3356ZM50.4293 63.4905L49.9315 62.9984L50.4293 63.4905ZM56.9561 63.5304L57.46 63.0445L56.9561 63.5304ZM66.4691 73.3935L65.9653 73.8794L66.4691 73.3935ZM73.0349 73.3935L72.5311 72.9075L73.0349 73.3935ZM75.6742 70.6571L76.178 71.1431L75.6742 70.6571ZM82.2009 70.6172L81.7031 71.1093L82.2009 70.6172ZM86.275 75.7348C86.5468 76.0097 86.99 76.0123 87.2649 75.7405C87.5399 75.4688 87.5425 75.0256 87.2707 74.7506L86.275 75.7348ZM78.0317 68.6739L78.2552 69.3372H78.2552L78.0317 68.6739ZM79.8193 68.663L79.6039 69.329L79.6039 69.329L79.8193 68.663ZM68.8516 75.3955L68.6304 76.0597H68.6304L68.8516 75.3955ZM70.6525 75.3955L70.4314 74.7314L70.6525 75.3955ZM52.8109 61.5363L52.5955 60.8702L52.8109 61.5363ZM54.5986 61.5472L54.3751 62.2106L54.5986 61.5472ZM74.5321 52.3618V51.6618C74.1455 51.6618 73.8321 51.9752 73.8321 52.3618H74.5321ZM74.6184 52.3618H75.3184C75.3184 51.9752 75.005 51.6618 74.6184 51.6618V52.3618ZM74.6184 52.4542V53.1542C75.005 53.1542 75.3184 52.8408 75.3184 52.4542H74.6184ZM74.5321 52.4542H73.8321C73.8321 52.8408 74.1455 53.1542 74.5321 53.1542V52.4542ZM44.773 40.9135H82.2118V39.5135H44.773V40.9135ZM86.0728 44.7746V82.2134H87.4729V44.7746H86.0728ZM82.2118 86.0745H44.773V87.4745H82.2118V86.0745ZM40.9119 82.2134V44.7746H39.5119V82.2134H40.9119ZM44.773 86.0745C43.9632 86.0745 43.3979 86.0739 42.9577 86.0379C42.5256 86.0026 42.276 85.9367 42.0862 85.84L41.4506 87.0875C41.8706 87.3015 42.325 87.3909 42.8437 87.4333C43.3541 87.475 43.9863 87.4745 44.773 87.4745V86.0745ZM39.5119 82.2134C39.5119 83.0001 39.5114 83.6322 39.5531 84.1427C39.5955 84.6613 39.6849 85.1157 39.8989 85.5358L41.1463 84.9002C41.0496 84.7104 40.9837 84.4608 40.9484 84.0287C40.9125 83.5885 40.9119 83.0232 40.9119 82.2134H39.5119ZM42.0862 85.84C41.6815 85.6339 41.3525 85.3048 41.1463 84.9002L39.8989 85.5358C40.2393 86.2039 40.7825 86.747 41.4506 87.0875L42.0862 85.84ZM86.0728 82.2134C86.0728 83.0232 86.0723 83.5885 86.0363 84.0287C86.001 84.4608 85.9351 84.7104 85.8384 84.9002L87.0858 85.5358C87.2999 85.1157 87.3893 84.6613 87.4317 84.1427C87.4734 83.6322 87.4729 83.0001 87.4729 82.2134H86.0728ZM82.2118 87.4745C82.9985 87.4745 83.6306 87.475 84.1411 87.4333C84.6597 87.3909 85.1141 87.3015 85.5341 87.0875L84.8986 85.84C84.7088 85.9367 84.4592 86.0026 84.0271 86.0379C83.5869 86.0739 83.0216 86.0745 82.2118 86.0745V87.4745ZM85.8384 84.9002C85.6322 85.3048 85.3032 85.6339 84.8986 85.84L85.5341 87.0875C86.2023 86.747 86.7454 86.2039 87.0858 85.5358L85.8384 84.9002ZM82.2118 40.9135C83.0216 40.9135 83.5869 40.9141 84.0271 40.95C84.4592 40.9853 84.7088 41.0512 84.8986 41.1479L85.5341 39.9005C85.1141 39.6865 84.6597 39.5971 84.1411 39.5547C83.6306 39.513 82.9985 39.5135 82.2118 39.5135V40.9135ZM87.4729 44.7746C87.4729 43.9879 87.4734 43.3557 87.4317 42.8453C87.3893 42.3266 87.2999 41.8722 87.0858 41.4522L85.8384 42.0878C85.9351 42.2776 86.001 42.5272 86.0363 42.9593C86.0723 43.3995 86.0728 43.9648 86.0728 44.7746H87.4729ZM84.8986 41.1479C85.3032 41.3541 85.6322 41.6831 85.8384 42.0878L87.0858 41.4522C86.7454 40.7841 86.2023 40.2409 85.5341 39.9005L84.8986 41.1479ZM44.773 39.5135C43.9863 39.5135 43.3541 39.513 42.8437 39.5547C42.325 39.5971 41.8706 39.6865 41.4506 39.9005L42.0862 41.1479C42.276 41.0512 42.5256 40.9853 42.9577 40.95C43.3979 40.9141 43.9632 40.9135 44.773 40.9135V39.5135ZM40.9119 44.7746C40.9119 43.9648 40.9125 43.3995 40.9484 42.9593C40.9837 42.5272 41.0496 42.2776 41.1463 42.0878L39.8989 41.4522C39.6849 41.8722 39.5955 42.3266 39.5531 42.8453C39.5114 43.3557 39.5119 43.9879 39.5119 44.7746H40.9119ZM41.4506 39.9005C40.7825 40.2409 40.2393 40.7841 39.8989 41.4522L41.1463 42.0878C41.3525 41.6831 41.6815 41.3541 42.0862 41.1479L41.4506 39.9005ZM40.7098 74.3197L50.9272 63.9826L49.9315 62.9984L39.7141 73.3356L40.7098 74.3197ZM56.4523 64.0164L65.9653 73.8794L66.973 72.9075L57.46 63.0445L56.4523 64.0164ZM73.5387 73.8794L76.178 71.1431L75.1703 70.1712L72.5311 72.9075L73.5387 73.8794ZM81.7031 71.1093L86.275 75.7348L87.2707 74.7506L82.6988 70.1251L81.7031 71.1093ZM76.178 71.1431C76.7523 70.5476 77.154 70.132 77.4927 69.8342C77.8254 69.5417 78.0506 69.4062 78.2552 69.3372L77.8081 68.0105C77.3539 68.1636 76.9666 68.4326 76.5684 68.7827C76.1762 69.1275 75.7284 69.5925 75.1703 70.1712L76.178 71.1431ZM82.6988 70.1251C82.1336 69.5533 81.6802 69.0938 81.2838 68.7539C80.8814 68.4087 80.4908 68.1444 80.0347 67.9969L79.6039 69.329C79.8093 69.3954 80.0362 69.5282 80.3724 69.8166C80.7148 70.1102 81.1215 70.5209 81.7031 71.1093L82.6988 70.1251ZM78.2552 69.3372C78.6923 69.1899 79.1651 69.187 79.6039 69.329L80.0347 67.9969C79.3103 67.7626 78.5297 67.7674 77.8081 68.0105L78.2552 69.3372ZM65.9653 73.8794C66.5297 74.4645 66.9822 74.9345 67.3784 75.2826C67.7806 75.6359 68.1719 75.907 68.6304 76.0597L69.0727 74.7314C68.8664 74.6627 68.6389 74.5264 68.3024 74.2308C67.9599 73.9299 67.5537 73.5095 66.973 72.9075L65.9653 73.8794ZM72.5311 72.9075C71.9504 73.5095 71.5442 73.9299 71.2017 74.2308C70.8651 74.5264 70.6377 74.6627 70.4314 74.7314L70.8736 76.0597C71.3322 75.907 71.7234 75.6359 72.1256 75.2826C72.5219 74.9345 72.9744 74.4645 73.5387 73.8794L72.5311 72.9075ZM68.6304 76.0597C69.3585 76.3021 70.1455 76.3021 70.8736 76.0597L70.4314 74.7314C69.9904 74.8782 69.5137 74.8782 69.0727 74.7314L68.6304 76.0597ZM50.9272 63.9826C51.5088 63.3942 51.9155 62.9835 52.2578 62.6899C52.5941 62.4015 52.8209 62.2688 53.0264 62.2023L52.5955 60.8702C52.1395 61.0177 51.7489 61.282 51.3464 61.6272C50.95 61.9672 50.4967 62.4267 49.9315 62.9984L50.9272 63.9826ZM57.46 63.0445C56.9018 62.4658 56.4541 62.0008 56.0619 61.6561C55.6637 61.306 55.2763 61.0369 54.8222 60.8839L54.3751 62.2106C54.5797 62.2795 54.8048 62.415 55.1376 62.7075C55.4763 63.0053 55.8779 63.4209 56.4523 64.0164L57.46 63.0445ZM53.0264 62.2023C53.4652 62.0604 53.938 62.0633 54.3751 62.2106L54.8222 60.8839C54.1006 60.6407 53.32 60.6359 52.5955 60.8702L53.0264 62.2023ZM77.5736 52.408C77.5736 54.0623 76.2326 55.4034 74.5783 55.4034V56.8034C77.0058 56.8034 78.9736 54.8355 78.9736 52.408H77.5736ZM74.5783 55.4034C72.9241 55.4034 71.583 54.0623 71.583 52.408H70.183C70.183 54.8355 72.1509 56.8034 74.5783 56.8034V55.4034ZM71.583 52.408C71.583 50.7538 72.9241 49.4127 74.5783 49.4127V48.0127C72.1509 48.0127 70.183 49.9806 70.183 52.408H71.583ZM74.5783 49.4127C76.2326 49.4127 77.5736 50.7538 77.5736 52.408H78.9736C78.9736 49.9806 77.0058 48.0127 74.5783 48.0127V49.4127ZM74.5321 53.0618H74.6184V51.6618H74.5321V53.0618ZM73.9184 52.3618V52.4542H75.3184V52.3618H73.9184ZM74.6184 51.7542H74.5321V53.1542H74.6184V51.7542ZM75.2321 52.4542V52.3618H73.8321V52.4542H75.2321Z" fill="#6A7383"/>
</g>
</svg>
