<svg width="58" height="60" viewBox="0 0 58 60" fill="none" xmlns="http://www.w3.org/2000/svg">
<path d="M58 32.84C58.0194 33.2086 57.8946 33.5703 57.6519 33.8485C57.4093 34.1266 57.0678 34.2993 56.7 34.33H40.14C39.7668 34.3068 39.4178 34.1373 39.1688 33.8583C38.9197 33.5794 38.7908 33.2134 38.81 32.84V6.99C38.7908 6.61655 38.9197 6.25063 39.1688 5.97166C39.4178 5.69269 39.7668 5.52321 40.14 5.5H56.7C57.0732 5.52321 57.4222 5.69269 57.6712 5.97166C57.9202 6.25063 58.0491 6.61655 58.03 6.99L58 32.84Z" fill="#FF8800"/>
<path d="M56.52 11.1699C56.5175 11.2054 56.5079 11.2401 56.492 11.2719C56.476 11.3037 56.4539 11.332 56.427 11.3552C56.4 11.3785 56.3687 11.3961 56.3349 11.4072C56.3011 11.4183 56.2655 11.4227 56.23 11.4199H52.63C52.595 11.4227 52.5599 11.4183 52.5266 11.4071C52.4934 11.3958 52.4628 11.378 52.4367 11.3547C52.4105 11.3313 52.3893 11.3029 52.3744 11.2712C52.3595 11.2394 52.3512 11.205 52.35 11.1699V6.86993C52.3512 6.83489 52.3595 6.80046 52.3744 6.76871C52.3893 6.73697 52.4105 6.70856 52.4367 6.68521C52.4628 6.66185 52.4934 6.64403 52.5266 6.63281C52.5599 6.6216 52.595 6.61721 52.63 6.61993H56.23C56.2655 6.61721 56.3011 6.62152 56.3349 6.63263C56.3687 6.64373 56.4 6.66141 56.427 6.68464C56.4539 6.70787 56.476 6.7362 56.492 6.768C56.5079 6.7998 56.5175 6.83444 56.52 6.86993V11.1699Z" fill="#009EA5"/>
<path d="M45.36 7.25977H43.17V9.69977H45.36V7.25977Z" fill="#009EA5"/>
<path d="M45.36 10.46H43.17V23.39H45.36V10.46Z" fill="#009EA5"/>
<path d="M45.36 24.1699H43.17V30.9699H45.36V24.1699Z" fill="#009EA5"/>
<path d="M40.78 29.7799C40.78 30.1629 40.7044 30.5422 40.5575 30.8959C40.4106 31.2496 40.1954 31.5708 39.9241 31.8412C39.6528 32.1115 39.3308 32.3257 38.9766 32.4713C38.6224 32.617 38.2429 32.6913 37.86 32.6899C37.0882 32.6899 36.348 32.3833 35.8023 31.8376C35.2565 31.2919 34.95 30.5517 34.95 29.7799V10.0499C34.9579 9.28337 35.2679 8.55088 35.8128 8.01163C36.3577 7.47237 37.0933 7.1699 37.86 7.16994C38.2429 7.16862 38.6224 7.24292 38.9766 7.38857C39.3308 7.53422 39.6528 7.74837 39.9241 8.01871C40.1954 8.28906 40.4106 8.61031 40.5575 8.96402C40.7044 9.31773 40.78 9.69695 40.78 10.0799V29.7799Z" fill="#1A44ED"/>
<path d="M35.06 0H4.24999C2.1734 0 0.48999 1.68341 0.48999 3.76V55.61C0.48999 57.6866 2.1734 59.37 4.24999 59.37H35.06C37.1366 59.37 38.82 57.6866 38.82 55.61V3.76C38.82 1.68341 37.1366 0 35.06 0Z" fill="#1A44ED"/>
<g style="mix-blend-mode:multiply" opacity="0.4">
<path d="M33.3 6.16988C33.3 8.53988 35.1 58.6199 33.3 58.6199H5.99995C4.19995 58.6199 5.99995 8.53988 5.99995 6.16988C5.99995 3.79988 7.44995 1.87988 9.24995 1.87988H30.05C31.85 1.87988 33.3 3.79988 33.3 6.16988Z" fill="#1A44ED"/>
</g>
<path d="M31.95 24.35C31.9473 24.6691 31.8187 24.9743 31.5921 25.1991C31.3654 25.4239 31.0592 25.55 30.74 25.55H8.69998C8.54108 25.5513 8.38347 25.5213 8.23616 25.4617C8.08885 25.4021 7.95473 25.3141 7.84145 25.2027C7.72816 25.0912 7.63792 24.9586 7.5759 24.8123C7.51388 24.666 7.48129 24.5089 7.47998 24.35V11.35C7.48784 11.0325 7.62016 10.7309 7.84839 10.5102C8.07662 10.2894 8.38247 10.1672 8.69998 10.17H30.7C30.8576 10.1686 31.0139 10.1984 31.16 10.2575C31.3061 10.3166 31.4391 10.4039 31.5515 10.5144C31.6638 10.6249 31.7533 10.7564 31.8148 10.9015C31.8763 11.0466 31.9087 11.2024 31.91 11.36L31.95 24.35Z" fill="#001E1C"/>
<path d="M30.55 23.4901C30.537 23.7633 30.4179 24.0207 30.2181 24.2074C30.0183 24.3942 29.7534 24.4956 29.48 24.4901H10.06C9.78481 24.4982 9.51743 24.398 9.31543 24.211C9.11343 24.0239 8.99297 23.7651 8.97998 23.4901V12.3501C8.99297 12.0751 9.11343 11.8162 9.31543 11.6292C9.51743 11.4421 9.78481 11.3419 10.06 11.3501H29.48C29.7534 11.3446 30.0183 11.446 30.2181 11.6327C30.4179 11.8195 30.537 12.0769 30.55 12.3501V23.4901Z" fill="#BBD623"/>
<path d="M27.7 5.82004C27.7039 5.99339 27.6737 6.16584 27.611 6.32751C27.5484 6.48919 27.4544 6.63694 27.3346 6.7623C27.2148 6.88767 27.0715 6.98821 26.9129 7.05817C26.7542 7.12813 26.5833 7.16614 26.41 7.17004H12.89C12.5399 7.17004 12.2041 7.03097 11.9566 6.78342C11.709 6.53587 11.5699 6.20012 11.5699 5.85004C11.5726 5.50169 11.7128 5.1685 11.9601 4.92311C12.2073 4.67773 12.5416 4.54003 12.89 4.54004H26.41C26.748 4.54757 27.0703 4.68454 27.3103 4.9227C27.5503 5.16087 27.6898 5.48206 27.7 5.82004Z" fill="#001E1C"/>
<path d="M23.53 33.32C23.5328 33.3437 23.5309 33.3676 23.5243 33.3905C23.5178 33.4134 23.5067 33.4348 23.4918 33.4534C23.4769 33.472 23.4585 33.4875 23.4376 33.4989C23.4167 33.5103 23.3937 33.5175 23.37 33.52H19.7C19.6764 33.5175 19.6534 33.5103 19.6325 33.4989C19.6116 33.4875 19.5932 33.472 19.5783 33.4534C19.5634 33.4348 19.5523 33.4134 19.5458 33.3905C19.5392 33.3676 19.5373 33.3437 19.54 33.32V30.45C19.5373 30.4263 19.5392 30.4024 19.5458 30.3795C19.5523 30.3565 19.5634 30.3352 19.5783 30.3166C19.5932 30.298 19.6116 30.2825 19.6325 30.2711C19.6534 30.2596 19.6764 30.2525 19.7 30.25H23.3601C23.3837 30.2525 23.4067 30.2596 23.4276 30.2711C23.4485 30.2825 23.4669 30.298 23.4818 30.3166C23.4967 30.3352 23.5078 30.3565 23.5143 30.3795C23.5209 30.4024 23.5228 30.4263 23.5201 30.45L23.53 33.32Z" fill="#96D5E7"/>
<path d="M28.76 33.32C28.7628 33.3437 28.7609 33.3676 28.7543 33.3905C28.7477 33.4134 28.7367 33.4348 28.7218 33.4534C28.7069 33.472 28.6885 33.4875 28.6676 33.4989C28.6467 33.5103 28.6237 33.5175 28.6 33.52H24.93C24.9063 33.5175 24.8834 33.5103 24.8625 33.4989C24.8415 33.4875 24.8231 33.472 24.8082 33.4534C24.7934 33.4348 24.7823 33.4134 24.7757 33.3905C24.7692 33.3676 24.7673 33.3437 24.77 33.32V30.45C24.7673 30.4263 24.7692 30.4024 24.7757 30.3795C24.7823 30.3565 24.7934 30.3352 24.8082 30.3166C24.8231 30.298 24.8415 30.2825 24.8625 30.2711C24.8834 30.2596 24.9063 30.2525 24.93 30.25H28.6C28.6237 30.2525 28.6467 30.2596 28.6676 30.2711C28.6885 30.2825 28.7069 30.298 28.7218 30.3166C28.7367 30.3352 28.7477 30.3565 28.7543 30.3795C28.7609 30.4024 28.7628 30.4263 28.76 30.45V33.32Z" fill="#96D5E7"/>
<path d="M12.97 33.32C12.9731 33.3673 12.9583 33.414 12.9287 33.451C12.8991 33.488 12.8568 33.5126 12.81 33.52H9.13999C9.11629 33.5175 9.09333 33.5103 9.07242 33.4989C9.05152 33.4875 9.03309 33.472 9.01821 33.4534C9.00333 33.4348 8.99228 33.4134 8.98572 33.3905C8.97916 33.3676 8.97721 33.3437 8.97999 33.32V30.45C8.97721 30.4263 8.97916 30.4024 8.98572 30.3795C8.99228 30.3565 9.00333 30.3352 9.01821 30.3166C9.03309 30.298 9.05152 30.2825 9.07242 30.2711C9.09333 30.2596 9.11629 30.2525 9.13999 30.25H12.81C12.8568 30.2574 12.8991 30.282 12.9287 30.319C12.9583 30.356 12.9731 30.4027 12.97 30.45V33.32Z" fill="#96D5E7"/>
<path d="M18.19 33.32C18.1928 33.3437 18.1908 33.3676 18.1842 33.3905C18.1777 33.4134 18.1666 33.4348 18.1518 33.4534C18.1369 33.472 18.1184 33.4875 18.0975 33.4989C18.0766 33.5103 18.0537 33.5175 18.03 33.52H14.37C14.3463 33.5175 14.3233 33.5103 14.3024 33.4989C14.2815 33.4875 14.2631 33.472 14.2482 33.4534C14.2333 33.4348 14.2223 33.4134 14.2157 33.3905C14.2091 33.3676 14.2072 33.3437 14.21 33.32V30.45C14.2072 30.4263 14.2091 30.4024 14.2157 30.3795C14.2223 30.3565 14.2333 30.3352 14.2482 30.3166C14.2631 30.298 14.2815 30.2825 14.3024 30.2711C14.3233 30.2596 14.3463 30.2525 14.37 30.25H18.03C18.0537 30.2525 18.0766 30.2596 18.0975 30.2711C18.1184 30.2825 18.1369 30.298 18.1518 30.3166C18.1666 30.3352 18.1777 30.3565 18.1842 30.3795C18.1908 30.4024 18.1928 30.4263 18.19 30.45V33.32Z" fill="#96D5E7"/>
<path d="M23.53 38.2199C23.5328 38.2436 23.5309 38.2676 23.5243 38.2905C23.5178 38.3134 23.5067 38.3347 23.4918 38.3533C23.4769 38.372 23.4585 38.3874 23.4376 38.3988C23.4167 38.4103 23.3937 38.4174 23.37 38.4199H19.7C19.6764 38.4174 19.6534 38.4103 19.6325 38.3988C19.6116 38.3874 19.5932 38.372 19.5783 38.3533C19.5634 38.3347 19.5523 38.3134 19.5458 38.2905C19.5392 38.2676 19.5373 38.2436 19.54 38.2199V35.3499C19.5398 35.3055 19.556 35.2625 19.5855 35.2292C19.6151 35.196 19.6559 35.1749 19.7 35.1699H23.3601C23.3837 35.1724 23.4067 35.1796 23.4276 35.191C23.4485 35.2024 23.4669 35.2179 23.4818 35.2365C23.4967 35.2551 23.5078 35.2765 23.5143 35.2994C23.5209 35.3223 23.5228 35.3463 23.5201 35.3699L23.53 38.2199Z" fill="#96D5E7"/>
<path d="M28.76 38.2199C28.7628 38.2436 28.7609 38.2675 28.7543 38.2904C28.7477 38.3134 28.7367 38.3347 28.7218 38.3533C28.7069 38.3719 28.6885 38.3874 28.6676 38.3988C28.6467 38.4103 28.6237 38.4174 28.6 38.4199H24.93C24.9063 38.4174 24.8834 38.4103 24.8625 38.3988C24.8415 38.3874 24.8231 38.3719 24.8082 38.3533C24.7934 38.3347 24.7823 38.3134 24.7757 38.2904C24.7692 38.2675 24.7673 38.2436 24.77 38.2199V35.3499C24.7673 35.3262 24.7692 35.3023 24.7757 35.2794C24.7823 35.2565 24.7934 35.2351 24.8082 35.2165C24.8231 35.1979 24.8415 35.1824 24.8625 35.171C24.8834 35.1596 24.9063 35.1524 24.93 35.1499H28.6C28.6237 35.1524 28.6467 35.1596 28.6676 35.171C28.6885 35.1824 28.7069 35.1979 28.7218 35.2165C28.7367 35.2351 28.7477 35.2565 28.7543 35.2794C28.7609 35.3023 28.7628 35.3262 28.76 35.3499V38.2199Z" fill="#96D5E7"/>
<path d="M12.97 38.2199C12.9731 38.2672 12.9583 38.3139 12.9287 38.3509C12.8991 38.3879 12.8568 38.4125 12.81 38.4199H9.13999C9.11629 38.4174 9.09333 38.4103 9.07242 38.3988C9.05152 38.3874 9.03309 38.3719 9.01821 38.3533C9.00333 38.3347 8.99228 38.3134 8.98572 38.2904C8.97916 38.2675 8.97721 38.2436 8.97999 38.2199V35.3499C8.97721 35.3262 8.97916 35.3023 8.98572 35.2794C8.99228 35.2565 9.00333 35.2351 9.01821 35.2165C9.03309 35.1979 9.05152 35.1824 9.07242 35.171C9.09333 35.1596 9.11629 35.1524 9.13999 35.1499H12.81C12.8568 35.1573 12.8991 35.1819 12.9287 35.2189C12.9583 35.2559 12.9731 35.3026 12.97 35.3499V38.2199Z" fill="#96D5E7"/>
<path d="M18.19 38.2199C18.1928 38.2436 18.1908 38.2675 18.1842 38.2904C18.1777 38.3134 18.1666 38.3347 18.1518 38.3533C18.1369 38.3719 18.1184 38.3874 18.0975 38.3988C18.0766 38.4103 18.0537 38.4174 18.03 38.4199H14.37C14.3463 38.4174 14.3233 38.4103 14.3024 38.3988C14.2815 38.3874 14.2631 38.3719 14.2482 38.3533C14.2333 38.3347 14.2223 38.3134 14.2157 38.2904C14.2091 38.2675 14.2072 38.2436 14.21 38.2199V35.3499C14.2072 35.3262 14.2091 35.3023 14.2157 35.2794C14.2223 35.2565 14.2333 35.2351 14.2482 35.2165C14.2631 35.1979 14.2815 35.1824 14.3024 35.171C14.3233 35.1596 14.3463 35.1524 14.37 35.1499H18.03C18.0537 35.1524 18.0766 35.1596 18.0975 35.171C18.1184 35.1824 18.1369 35.1979 18.1518 35.2165C18.1666 35.2351 18.1777 35.2565 18.1842 35.2794C18.1908 35.3023 18.1928 35.3262 18.19 35.3499V38.2199Z" fill="#96D5E7"/>
<path d="M23.53 42.5798C23.5328 42.6029 23.5308 42.6263 23.5241 42.6487C23.5175 42.671 23.5063 42.6917 23.4913 42.7095C23.4763 42.7273 23.4578 42.7419 23.4369 42.7522C23.4161 42.7626 23.3933 42.7686 23.37 42.7698H19.7C19.6768 42.7686 19.654 42.7626 19.6332 42.7522C19.6123 42.7419 19.5938 42.7273 19.5788 42.7095C19.5638 42.6917 19.5526 42.671 19.5459 42.6487C19.5393 42.6263 19.5373 42.6029 19.54 42.5798V39.6998C19.5373 39.6766 19.5393 39.6532 19.5459 39.6309C19.5526 39.6086 19.5638 39.5878 19.5788 39.57C19.5938 39.5522 19.6123 39.5377 19.6332 39.5273C19.654 39.5169 19.6768 39.511 19.7 39.5098H23.36C23.3833 39.511 23.4061 39.5169 23.4269 39.5273C23.4478 39.5377 23.4663 39.5522 23.4813 39.57C23.4963 39.5878 23.5074 39.6086 23.5141 39.6309C23.5208 39.6532 23.5228 39.6766 23.52 39.6998L23.53 42.5798Z" fill="#96D5E7"/>
<path d="M28.76 42.5798C28.7628 42.6029 28.7608 42.6263 28.7541 42.6487C28.7474 42.671 28.7362 42.6917 28.7212 42.7095C28.7062 42.7273 28.6877 42.7419 28.6669 42.7522C28.646 42.7626 28.6233 42.7686 28.6 42.7698H24.93C24.9067 42.7686 24.884 42.7626 24.8631 42.7522C24.8423 42.7419 24.8238 42.7273 24.8088 42.7095C24.7938 42.6917 24.7826 42.671 24.7759 42.6487C24.7692 42.6263 24.7672 42.6029 24.77 42.5798V39.6998C24.7672 39.6766 24.7692 39.6532 24.7759 39.6309C24.7826 39.6086 24.7938 39.5878 24.8088 39.57C24.8238 39.5522 24.8423 39.5377 24.8631 39.5273C24.884 39.5169 24.9067 39.511 24.93 39.5098H28.6C28.6233 39.511 28.646 39.5169 28.6669 39.5273C28.6877 39.5377 28.7062 39.5522 28.7212 39.57C28.7362 39.5878 28.7474 39.6086 28.7541 39.6309C28.7608 39.6532 28.7628 39.6766 28.76 39.6998V42.5798Z" fill="#C45400"/>
<path d="M12.97 42.5798C12.9728 42.6259 12.9578 42.6714 12.928 42.7068C12.8982 42.7422 12.8559 42.7647 12.81 42.7698H9.13997C9.11671 42.7686 9.09395 42.7626 9.07309 42.7522C9.05224 42.7419 9.03373 42.7273 9.01872 42.7095C9.00372 42.6917 8.99254 42.671 8.98587 42.6487C8.97921 42.6263 8.9772 42.6029 8.97997 42.5798V39.6998C8.9772 39.6766 8.97921 39.6532 8.98587 39.6309C8.99254 39.6086 9.00372 39.5878 9.01872 39.57C9.03373 39.5522 9.05224 39.5377 9.07309 39.5273C9.09395 39.5169 9.11671 39.511 9.13997 39.5098H12.81C12.8559 39.5148 12.8982 39.5374 12.928 39.5727C12.9578 39.6081 12.9728 39.6536 12.97 39.6998V42.5798Z" fill="#96D5E7"/>
<path d="M18.19 42.5798C18.1927 42.6029 18.1907 42.6263 18.1841 42.6487C18.1774 42.671 18.1662 42.6917 18.1512 42.7095C18.1362 42.7273 18.1177 42.7419 18.0968 42.7522C18.076 42.7626 18.0532 42.7686 18.03 42.7698H14.37C14.3467 42.7686 14.3239 42.7626 14.3031 42.7522C14.2822 42.7419 14.2637 42.7273 14.2487 42.7095C14.2337 42.6917 14.2225 42.671 14.2159 42.6487C14.2092 42.6263 14.2072 42.6029 14.2099 42.5798V39.6998C14.2072 39.6766 14.2092 39.6532 14.2159 39.6309C14.2225 39.6086 14.2337 39.5878 14.2487 39.57C14.2637 39.5522 14.2822 39.5377 14.3031 39.5273C14.3239 39.5169 14.3467 39.511 14.37 39.5098H18.03C18.0532 39.511 18.076 39.5169 18.0968 39.5273C18.1177 39.5377 18.1362 39.5522 18.1512 39.57C18.1662 39.5878 18.1774 39.6086 18.1841 39.6309C18.1907 39.6532 18.1927 39.6766 18.19 39.6998V42.5798Z" fill="#96D5E7"/>
<path d="M23.53 47.4802C23.5328 47.5033 23.5308 47.5267 23.5241 47.549C23.5175 47.5714 23.5063 47.5921 23.4913 47.6099C23.4763 47.6277 23.4578 47.6423 23.4369 47.6526C23.4161 47.663 23.3933 47.669 23.37 47.6702H19.7C19.6768 47.669 19.654 47.663 19.6332 47.6526C19.6123 47.6423 19.5938 47.6277 19.5788 47.6099C19.5638 47.5921 19.5526 47.5714 19.5459 47.549C19.5393 47.5267 19.5373 47.5033 19.54 47.4802V44.6002C19.5372 44.554 19.5522 44.5085 19.582 44.4731C19.6118 44.4378 19.6541 44.4152 19.7 44.4102H23.36C23.406 44.4152 23.4483 44.4378 23.4781 44.4731C23.5079 44.5085 23.5229 44.554 23.52 44.6002L23.53 47.4802Z" fill="#96D5E7"/>
<path d="M28.76 47.4802C28.7628 47.5033 28.7608 47.5267 28.7541 47.549C28.7474 47.5714 28.7362 47.5921 28.7212 47.6099C28.7062 47.6277 28.6877 47.6423 28.6669 47.6526C28.646 47.663 28.6233 47.669 28.6 47.6702H24.93C24.9067 47.669 24.884 47.663 24.8631 47.6526C24.8423 47.6423 24.8238 47.6277 24.8088 47.6099C24.7938 47.5921 24.7826 47.5714 24.7759 47.549C24.7692 47.5267 24.7672 47.5033 24.77 47.4802V44.6002C24.7672 44.554 24.7822 44.5085 24.812 44.4731C24.8418 44.4378 24.884 44.4152 24.93 44.4102H28.6C28.646 44.4152 28.6882 44.4378 28.718 44.4731C28.7478 44.5085 28.7628 44.554 28.76 44.6002V47.4802Z" fill="#7A1600"/>
<path d="M12.97 47.4802C12.9728 47.5263 12.9578 47.5718 12.928 47.6072C12.8982 47.6426 12.8559 47.6651 12.81 47.6702H9.13997C9.11671 47.669 9.09395 47.663 9.07309 47.6526C9.05224 47.6423 9.03373 47.6277 9.01872 47.6099C9.00372 47.5921 8.99254 47.5714 8.98587 47.549C8.97921 47.5267 8.9772 47.5033 8.97997 47.4802V44.6002C8.97712 44.554 8.99215 44.5085 9.02194 44.4731C9.05173 44.4378 9.094 44.4152 9.13997 44.4102H12.81C12.855 44.4174 12.8959 44.4405 12.9253 44.4754C12.9547 44.5103 12.9705 44.5546 12.97 44.6002V47.4802Z" fill="#96D5E7"/>
<path d="M18.19 47.4802C18.1927 47.5033 18.1907 47.5267 18.1841 47.549C18.1774 47.5714 18.1662 47.5921 18.1512 47.6099C18.1362 47.6277 18.1177 47.6423 18.0968 47.6526C18.076 47.663 18.0532 47.669 18.03 47.6702H14.37C14.3467 47.669 14.3239 47.663 14.3031 47.6526C14.2822 47.6423 14.2637 47.6277 14.2487 47.6099C14.2337 47.5921 14.2225 47.5714 14.2159 47.549C14.2092 47.5267 14.2072 47.5033 14.2099 47.4802V44.6002C14.2071 44.554 14.2221 44.5085 14.2519 44.4731C14.2817 44.4378 14.324 44.4152 14.37 44.4102H18.03C18.0759 44.4152 18.1182 44.4378 18.148 44.4731C18.1778 44.5085 18.1928 44.554 18.19 44.6002V47.4802Z" fill="#96D5E7"/>
<path d="M30.43 59.09V56.8C30.43 55.808 30.038 54.8561 29.3393 54.1519C28.6407 53.4476 27.692 53.048 26.7 53.04H12.62C11.6245 53.0427 10.6707 53.44 9.96774 54.1448C9.26477 54.8497 8.86999 55.8045 8.87 56.8V59.09H30.43Z" fill="#001E1C"/>
</svg>
