<svg width="281" height="199" viewBox="0 0 281 199" fill="none" xmlns="http://www.w3.org/2000/svg">
<path d="M274.285 -0.0078125H157.838C154.049 -0.0078125 150.977 3.06378 150.977 6.85278V115.587C150.977 119.376 154.049 122.448 157.838 122.448H274.285C278.074 122.448 281.145 119.376 281.145 115.587V6.85278C281.145 3.06378 278.074 -0.0078125 274.285 -0.0078125Z" fill="#1A64ED" fill-opacity="0.06"/>
<path d="M134.39 33.645H7.02843C3.23944 33.645 0.167847 36.7166 0.167847 40.5056V115.371C0.167847 119.16 3.23944 122.232 7.02843 122.232H134.39C138.179 122.232 141.251 119.16 141.251 115.371V40.5056C141.251 36.7166 138.179 33.645 134.39 33.645Z" fill="#1A64ED" fill-opacity="0.06"/>
<path d="M46.589 69.0268L37.9133 81.3681L36.9025 82.8097L26.1415 78.6432V66.2559C26.1415 65.0337 27.4658 64.2867 28.5356 64.8887C35.0352 68.5451 41.0398 69.8529 46.589 69.0268Z" fill="#005BD3"/>
<path d="M68.867 69.5111L54.795 89.734L36.9023 82.8108L37.9132 81.3692L46.5889 69.0279C50.0909 68.5051 53.41 67.1426 56.5539 64.9722L68.867 69.5111Z" fill="white"/>
<path d="M54.7951 89.7339H26.1415V78.644L36.8945 82.8107H36.9025L54.7951 89.7339Z" fill="#E8E9EB"/>
<path d="M77.7264 72.7824L65.9387 89.7339H61.1631L73.5557 71.2378L77.7264 72.7824Z" fill="white"/>
<path d="M104.302 89.33C104.191 89.3538 104.079 89.3776 103.968 89.3855C102.639 89.6231 101.285 89.734 99.9324 89.734H72.3054L82.4854 74.5332L93.8196 78.7077C97.2103 79.9593 100.084 82.3277 101.946 85.4169L104.302 89.33Z" fill="white"/>
<path d="M121.653 83.0567V83.6568L108.099 88.3006C106.752 88.7901 105.377 89.1498 103.973 89.389C103.971 89.3881 103.97 89.3874 103.968 89.3858L101.946 85.4172C100.084 82.328 97.2103 79.9595 93.8196 78.7079L82.4855 74.5335L82.0318 74.3671L77.9168 72.8542L77.7258 72.7829L73.5551 71.2383L73.3322 71.1591L69.2252 69.6461L68.867 69.5114L56.554 64.9725C58.3926 63.7139 60.1627 62.1858 61.8874 60.394C62.326 59.9386 62.9883 59.7714 63.5845 59.9853L119.56 80.0783C120.818 80.5377 121.653 81.726 121.653 83.0567Z" fill="#E8E9EB"/>
<path d="M73.5548 71.238L61.162 89.7341H54.7946L68.8667 69.5112L69.2248 69.6459L73.3318 71.1588L73.5548 71.238Z" fill="#005BD3"/>
<path d="M82.486 74.5323L72.3059 89.7331H65.9385L77.7263 72.7817L77.9173 72.8529L82.0323 74.3659L82.486 74.5323Z" fill="#005BD3"/>
<path d="M121.653 83.6572V87.5884C121.653 88.8875 120.858 90.0519 119.655 90.5351L110.001 94.369C107.184 95.4938 104.175 96.072 101.134 96.072H27.7333C26.8538 96.072 26.1415 95.3631 26.1415 94.4878V89.6874L99.9325 89.7351C101.286 89.7351 102.639 89.6241 103.968 89.3865C104.079 89.3786 104.191 89.3548 104.302 89.3311C105.592 89.0934 106.857 88.7528 108.099 88.3013L121.653 83.6572Z" fill="#B6BABF"/>
<path d="M70.2238 65.5071C70.2238 66.5406 69.4015 67.3784 68.387 67.3784C67.3726 67.3784 66.5503 66.5406 66.5503 65.5071C66.5503 64.4736 67.3726 63.6357 68.387 63.6357C69.4015 63.6357 70.2238 64.4736 70.2238 65.5071Z" fill="#9FA5AB"/>
<path d="M77.5711 68.0022C77.5711 69.0357 76.7487 69.8736 75.7343 69.8736C74.7199 69.8736 73.8976 69.0357 73.8976 68.0022C73.8976 66.9687 74.7199 66.1309 75.7343 66.1309C76.7487 66.1309 77.5711 66.9687 77.5711 68.0022Z" fill="#9FA5AB"/>
<path d="M84.9185 70.4972C84.9185 71.5307 84.0961 72.3686 83.0817 72.3686C82.0673 72.3686 81.2449 71.5307 81.2449 70.4972C81.2449 69.4638 82.0673 68.626 83.0817 68.626C84.0961 68.626 84.9185 69.4638 84.9185 70.4972Z" fill="#9FA5AB"/>
<path d="M92.2653 72.9928C92.2653 74.0263 91.4429 74.8642 90.4285 74.8642C89.4141 74.8642 88.5917 74.0263 88.5917 72.9928C88.5917 71.9594 89.4141 71.1216 90.4285 71.1216C91.4429 71.1216 92.2653 71.9594 92.2653 72.9928Z" fill="#9FA5AB"/>
<path d="M133.844 133.889H7.12048C3.33148 133.889 0.259888 136.961 0.259888 140.75V191.269C0.259888 195.058 3.33148 198.13 7.12048 198.13H133.844C137.633 198.13 140.705 195.058 140.705 191.269V140.75C140.705 136.961 137.633 133.889 133.844 133.889Z" fill="#1A64ED" fill-opacity="0.06"/>
<path d="M115.706 152.07L33.6099 155.376L33.226 164.928L33.6099 175.211L115.706 177.415V152.07Z" fill="#DEAC90"/>
<path d="M115.706 152.049L121.216 150.969V178.518L115.706 177.438V152.049Z" fill="#82543A"/>
<path d="M33.6098 175.212C32.0884 175.212 30.8549 170.771 30.8549 165.294C30.8549 159.817 32.0884 155.376 33.6098 155.376C35.1313 155.376 36.3647 159.817 36.3647 165.294C36.3647 170.771 35.1313 175.212 33.6098 175.212Z" fill="#B07D60"/>
<path d="M32.5671 159.784C32.5671 159.784 21.7313 160.326 20.6478 161.41C19.5642 162.493 19.5642 168.723 20.6478 169.537C21.7313 170.349 32.5671 171.162 32.5671 171.162C32.5671 171.162 33.6507 169.537 33.6507 165.473C33.6507 161.41 32.5671 159.784 32.5671 159.784Z" fill="#82543A"/>
<path d="M77.072 162.278C79.6419 162.278 79.7846 159.638 82.7827 159.638C85.8522 159.638 85.8522 162.615 88.8504 162.615C91.8485 162.615 91.9912 159.975 94.8466 159.975C97.702 159.975 97.6306 162.615 100.557 162.615C103.484 162.615 103.698 159.975 106.482 159.975C109.266 159.975 110.265 162.615 112.051 162.615" stroke="#82543A" stroke-width="2.35491" stroke-linecap="round" stroke-linejoin="round"/>
<path d="M274.287 133.889H157.84C154.051 133.889 150.98 136.961 150.98 140.75V191.269C150.98 195.058 154.051 198.13 157.84 198.13H274.287C278.076 198.13 281.148 195.058 281.148 191.269V140.75C281.148 136.961 278.076 133.889 274.287 133.889Z" fill="#1A64ED" fill-opacity="0.06"/>
<mask id="mask0_24789_4672" style="mask-type:luminance" maskUnits="userSpaceOnUse" x="170" y="149" width="95" height="32">
<path d="M170.219 149.209L264.552 149.209L264.552 180.082L170.219 180.082L170.219 149.209Z" fill="white"/>
</mask>
<g mask="url(#mask0_24789_4672)">
<path d="M209.51 161.196H224.385V165.339H209.51V161.196Z" fill="#757A7F"/>
<path d="M250.45 153.255C250.45 153.255 255.581 159.502 256.176 159.696C256.771 159.891 260.714 160.062 261.134 160.473C261.332 160.667 261.386 162.622 261.25 163.931C261.193 164.468 260.739 164.884 260.188 164.903C259.391 164.932 258.268 165.06 257.565 165.521C256.375 166.297 254.434 170.437 254.434 170.437" fill="#42474C"/>
<path d="M224.051 164.647C224.051 173.172 231.11 180.081 239.819 180.081C248.527 180.081 255.585 173.172 255.585 164.647C255.585 156.123 248.525 149.213 239.819 149.213C234.713 149.213 230.175 151.587 227.294 155.269C225.26 157.868 224.051 161.12 224.051 164.647Z" fill="#42474C"/>
<path d="M228.606 154.844C228.606 154.844 225.365 159.286 224.068 159.074C222.771 158.863 220.396 156.961 216.508 157.384L216.725 161.403C216.725 161.403 220.232 160.654 221.693 164.362C223.45 168.824 225.181 170.679 225.829 171.737" fill="#42474C"/>
<path d="M184.694 153.248C184.694 153.248 179.563 159.496 178.968 159.69C178.373 159.884 174.431 160.055 174.011 160.466C173.812 160.661 173.758 162.616 173.895 163.924C173.951 164.462 174.405 164.877 174.956 164.897C175.754 164.926 176.876 165.054 177.58 165.514C178.77 166.291 180.709 170.43 180.709 170.43" fill="#42474C"/>
<path d="M211.094 164.64C211.094 173.165 204.036 180.074 195.327 180.074C186.618 180.074 179.56 173.165 179.56 164.64C179.56 156.115 186.618 149.205 195.327 149.205C200.432 149.205 204.97 151.58 207.852 155.26C209.886 157.86 211.094 161.112 211.094 164.64Z" fill="#42474C"/>
<path d="M211.094 164.64C211.094 173.165 204.036 180.074 195.327 180.074C186.618 180.074 179.56 173.165 179.56 164.64C179.56 156.115 186.618 149.205 195.327 149.205C200.432 149.205 204.97 151.58 207.852 155.26C209.886 157.86 211.094 161.112 211.094 164.64Z" fill="#42474C"/>
<path d="M206.535 154.836C206.535 154.836 209.776 159.278 211.071 159.066C212.367 158.855 214.744 156.952 218.633 157.375L218.417 161.394C218.417 161.394 214.909 160.647 213.449 164.355C211.692 168.815 209.96 170.67 209.312 171.728" fill="#42474C"/>
<path d="M263.965 179.142C262.435 179.958 257.765 178.529 256.21 178.051C252.704 176.978 245.796 174.17 245.867 171.45C245.919 169.523 249.461 168.211 252.95 168.682C259.95 169.628 266.601 177.735 263.965 179.141V179.142Z" fill="#42474C"/>
<path d="M170.814 179.065C172.343 179.881 177.014 178.451 178.568 177.974C182.075 176.9 188.983 174.093 188.911 171.373C188.86 169.445 185.318 168.133 181.829 168.604C174.828 169.55 168.178 177.658 170.814 179.063V179.065Z" fill="#42474C"/>
<path d="M206.953 164.475C206.953 170.847 201.621 176.011 195.045 176.011C188.468 176.011 183.137 170.847 183.137 164.475C183.137 158.104 188.468 152.94 195.045 152.94C198.901 152.94 202.327 154.714 204.503 157.466C206.04 159.408 206.953 161.839 206.953 164.475Z" fill="url(#paint0_linear_24789_4672)"/>
<path d="M251.605 164.475C251.605 170.847 246.275 176.011 239.697 176.011C233.121 176.011 227.791 170.847 227.791 164.475C227.791 158.104 233.121 152.94 239.697 152.94C243.553 152.94 246.98 154.714 249.157 157.466C250.693 159.408 251.605 161.839 251.605 164.475Z" fill="url(#paint1_linear_24789_4672)"/>
</g>
<path d="M198.584 23.0166C198.584 23.0166 205.786 22.1283 214.651 23.3778C223.516 24.627 232.956 28.5814 232.956 28.5814C232.956 28.5814 226.129 35.7101 226.129 49.1631C226.129 62.616 240.811 61.4628 240.811 78.7594C240.811 96.0561 232.467 97.978 232.467 97.978H199.867C199.867 97.978 192.365 95.1357 192.365 78.9922C192.365 62.8487 206.207 61.0785 206.207 49.1631C206.207 37.2476 198.584 23.0166 198.584 23.0166Z" fill="#033C39"/>
<path d="M198.584 23.0171C198.584 23.0171 206.207 27.3273 215.072 28.5921C223.936 29.857 232.956 28.5819 232.956 28.5819C232.956 28.5819 226.409 35.258 226.409 48.8771C226.409 62.4962 240.811 61.667 240.811 79.1773C240.811 96.6876 232.467 98.6331 232.467 98.6331H199.867C199.867 98.6331 192.365 95.3355 192.365 78.9926C192.365 62.6497 206.207 61.2779 206.207 49.2153C206.207 37.1527 198.584 23.0171 198.584 23.0171Z" fill="#00A198"/>
<path fill-rule="evenodd" clip-rule="evenodd" d="M213.031 44.1994C216.382 40.4825 220.116 36.3436 224.258 31.6733C225.051 30.779 225.811 29.9169 226.539 29.0862C230.282 28.931 232.953 28.5815 232.953 28.5815C232.953 28.5815 226.407 35.2991 226.407 48.8767C226.407 55.2395 229.513 58.4723 232.815 61.9079C236.558 65.8036 240.553 69.9599 240.553 79.2361C240.553 96.6931 232.254 98.6327 232.254 98.6327H199.826C199.826 98.6327 191.708 95.94 191.708 79.6468C191.708 70.883 195.881 66.2653 199.738 61.9975C202.447 59.0004 204.999 56.1759 205.841 52.209C208.014 49.7629 210.405 47.1106 213.031 44.1994Z" fill="#0C6A64"/>
<path fill-rule="evenodd" clip-rule="evenodd" d="M226.432 49.8485C226.737 55.5941 229.746 58.6462 232.931 61.8792C236.743 65.7465 240.81 69.8727 240.81 79.1772C240.81 96.6875 232.466 98.6331 232.466 98.6331H204.91C218.644 92.4319 224.937 64.0056 226.397 49.8228C226.409 49.8313 226.421 49.8399 226.432 49.8485Z" fill="#033C39"/>
<path fill-rule="evenodd" clip-rule="evenodd" d="M115.852 168.568H33.3531L33.61 175.212L115.706 177.416L115.852 168.568Z" fill="#B07D60" fill-opacity="0.5"/>
<defs>
<linearGradient id="paint0_linear_24789_4672" x1="195.045" y1="152.94" x2="195.045" y2="176.011" gradientUnits="userSpaceOnUse">
<stop stop-color="#2E2E2F"/>
<stop offset="1" stop-color="#141617"/>
</linearGradient>
<linearGradient id="paint1_linear_24789_4672" x1="239.697" y1="152.94" x2="239.697" y2="176.011" gradientUnits="userSpaceOnUse">
<stop stop-color="#2E2E2F"/>
<stop offset="1" stop-color="#141617"/>
</linearGradient>
</defs>
</svg>
