<svg width="71" height="72" viewBox="0 0 71 72" fill="none" xmlns="http://www.w3.org/2000/svg">
<path fill-rule="evenodd" clip-rule="evenodd" d="M34.0088 0.8408C34.8713 0.12468 36.1288 0.124681 36.9913 0.840801C45.5219 7.92417 56.3186 12.3728 68.1331 12.9383C69.1951 12.9892 70.1019 13.7562 70.2413 14.8102C70.5439 17.0976 70.7001 19.4311 70.7001 21.8012C70.7001 44.5158 56.3565 63.8804 36.2329 71.3316C35.761 71.5063 35.2405 71.5063 34.7687 71.3316C14.6442 63.8808 0.300049 44.5159 0.300049 21.8006C0.300049 19.4308 0.456177 17.0974 0.758707 14.8102C0.898122 13.7562 1.80492 12.9892 2.86689 12.9383C14.6814 12.3728 25.4782 7.92419 34.0088 0.8408ZM52.4689 27.0409C53.5408 25.5669 53.215 23.503 51.741 22.4311C50.2671 21.3591 48.2032 21.685 47.1312 23.1589L31.8027 44.2357L23.5335 35.9664C22.2448 34.6777 20.1553 34.6777 18.8666 35.9664C17.5779 37.2552 17.5779 39.3446 18.8666 40.6334L29.8666 51.6334C30.549 52.3158 31.496 52.6653 32.4582 52.5898C33.4203 52.5143 34.3012 52.0214 34.8689 51.2409L52.4689 27.0409Z" fill="#228403"/>
</svg>
