<svg width="32" height="32" viewBox="0 0 32 32" fill="none" xmlns="http://www.w3.org/2000/svg">
<path d="M16 2.66699C19.5344 2.6672 22.3994 5.58564 22.3994 9.18555V10.8154H24.5332C25.9855 10.8155 27.1964 11.9463 27.3222 13.4199L28.6445 28.9014C28.7866 30.5675 27.4965 32 25.8545 32H6.14548C4.50344 32 3.21333 30.5675 3.35544 28.9014L4.6777 13.4199C4.80352 11.9463 6.01442 10.8155 7.46676 10.8154H9.59958V9.18555C9.59958 5.58551 12.4653 2.66699 16 2.66699ZM21.2002 13.2959C20.0958 13.296 19.2004 14.1916 19.2002 15.2959V17.333C19.2 19.188 17.7327 20.6288 16 20.6289C14.2673 20.6288 12.8 19.188 12.7998 17.333V15.2959C12.7995 14.1915 11.9042 13.2959 10.7998 13.2959C9.69544 13.296 8.8 14.1916 8.79977 15.2959V17.333C8.79995 21.3277 11.9893 24.6288 16 24.6289C20.0106 24.6288 23.2 21.3277 23.2002 17.333V15.2959C23.1999 14.1917 22.3044 13.2961 21.2002 13.2959ZM16 5.11133C13.7908 5.11133 12 6.93552 12 9.18555V10.8154H20V9.18555C20 6.93565 18.2089 5.11153 16 5.11133Z" fill="#DF1B41"/>
</svg>
