<svg width="47" height="20" viewBox="0 0 47 20" fill="none" xmlns="http://www.w3.org/2000/svg">
<g clip-path="url(#clip0_25702_7165)">
<path fill-rule="evenodd" clip-rule="evenodd" d="M46.1896 10.0512C46.1896 6.76659 44.5986 4.1748 41.5578 4.1748C38.5042 4.1748 36.6566 6.76659 36.6566 10.0255C36.6566 13.8875 38.8377 15.8377 41.9684 15.8377C43.4952 15.8377 44.6499 15.4913 45.5224 15.0037V12.4376C44.6499 12.8738 43.6491 13.1433 42.3789 13.1433C41.1344 13.1433 40.031 12.7071 39.8898 11.1931H46.1639C46.1639 11.0263 46.1896 10.3591 46.1896 10.0512ZM39.8514 8.83228C39.8514 7.38245 40.7367 6.77941 41.545 6.77941C42.3276 6.77941 43.1616 7.38245 43.1616 8.83228H39.8514Z" fill="#635BFF"/>
<path fill-rule="evenodd" clip-rule="evenodd" d="M31.704 4.1748C30.4466 4.1748 29.6382 4.76503 29.1892 5.17558L29.0224 4.38011H26.1997V19.3404L29.4073 18.6604L29.4201 15.0294C29.882 15.3629 30.5621 15.8377 31.6911 15.8377C33.9878 15.8377 36.0791 13.9901 36.0791 9.92287C36.0663 6.20205 33.9493 4.1748 31.704 4.1748ZM30.9341 13.015C30.1771 13.015 29.728 12.7455 29.4201 12.412L29.4073 7.65188C29.7409 7.27977 30.2028 7.02315 30.9341 7.02315C32.1017 7.02315 32.91 8.33186 32.91 10.0127C32.91 11.7319 32.1145 13.015 30.9341 13.015Z" fill="#635BFF"/>
<path fill-rule="evenodd" clip-rule="evenodd" d="M21.786 3.41805L25.0064 2.7252V0.120605L21.786 0.80062V3.41805Z" fill="#635BFF"/>
<path d="M25.0064 4.39307H21.786V15.6197H25.0064V4.39307Z" fill="#635BFF"/>
<path fill-rule="evenodd" clip-rule="evenodd" d="M18.3344 5.34236L18.1292 4.39289H15.3578V15.6195H18.5654V8.01108C19.3224 7.02312 20.6054 7.20274 21.0031 7.34386V4.39289C20.5926 4.2389 19.0914 3.95665 18.3344 5.34236Z" fill="#635BFF"/>
<path fill-rule="evenodd" clip-rule="evenodd" d="M11.9193 1.6084L8.78872 2.27557L8.77591 12.5527C8.77591 14.4517 10.2001 15.8502 12.099 15.8502C13.1511 15.8502 13.9209 15.6577 14.3443 15.4268V12.8222C13.9337 12.989 11.9065 13.5792 11.9065 11.6803V7.12547H14.3443V4.39262H11.9065L11.9193 1.6084Z" fill="#635BFF"/>
<path fill-rule="evenodd" clip-rule="evenodd" d="M3.24609 7.65188C3.24609 7.15152 3.65667 6.95903 4.33668 6.95903C5.3118 6.95903 6.54354 7.25414 7.51863 7.78019V4.76503C6.45373 4.34161 5.40161 4.1748 4.33668 4.1748C1.73211 4.1748 0 5.53488 0 7.80587C0 11.347 4.87556 10.7825 4.87556 12.3093C4.87556 12.8995 4.36235 13.092 3.64384 13.092C2.57892 13.092 1.21889 12.6557 0.141134 12.0655V15.1192C1.33436 15.6324 2.54042 15.8505 3.64384 15.8505C6.31255 15.8505 8.1473 14.529 8.1473 12.2324C8.13449 8.40885 3.24609 9.08889 3.24609 7.65188Z" fill="#635BFF"/>
</g>
<defs>
<clipPath id="clip0_25702_7165">
<rect width="46.5939" height="19.22" fill="white"/>
</clipPath>
</defs>
</svg>
