<svg width="50" height="21" viewBox="0 0 50 21" fill="none" xmlns="http://www.w3.org/2000/svg">
<path d="M41.2048 4.2002H45.4048V8.40017H41.2048V4.2002ZM41.2048 8.40017H45.4048V12.6002H41.2048V8.40017ZM41.2048 12.6002H45.4048V16.8001H41.2048V12.6002ZM41.2048 16.8001H45.4048V21.0001H41.2048V16.8001ZM45.4048 4.2002H49.6048V8.40017H45.4048V4.2002Z" fill="white"/>
<path d="M26.071 4.2002H30.271V8.40017H26.071V4.2002ZM26.071 8.40017H30.271V12.6002H26.071V8.40017ZM26.071 12.6002H30.271V16.8001H26.071V12.6002ZM30.271 16.8001H34.471V21.0001H30.271V16.8001ZM34.471 16.8001H38.671V21.0001H34.471V16.8001ZM34.471 12.6002H38.671V16.8001H34.471V12.6002ZM34.471 8.40017H38.671V12.6002H34.471V8.40017ZM34.471 4.2002H38.671V8.40017H34.471V4.2002Z" fill="white"/>
<path d="M15.1335 0H19.3335V4.19998H15.1335V0ZM15.1335 4.19998H19.3335V8.39996H15.1335V4.19998ZM15.1335 8.39996H19.3335V12.5999H15.1335V8.39996ZM15.1335 12.5999H19.3335V16.7999H15.1335V12.5999ZM15.1335 16.7999H19.3335V20.9999H15.1335V16.7999ZM19.3335 16.7999H23.5335V20.9999H19.3335V16.7999ZM19.3335 4.19998H23.5335V8.39996H19.3335V4.19998Z" fill="white"/>
<path d="M8.39996 4.2002H12.5999V8.40017H8.39996V4.2002ZM4.19998 4.2002H8.39996V8.40017H4.19998V4.2002ZM0 8.40017H4.19998V12.6002H0V8.40017ZM8.39996 12.6002H12.5999V16.8001H8.39996V12.6002ZM8.39996 16.8001H12.5999V21.0001H8.39996V16.8001ZM0 16.8001H4.19998V21.0001H0V16.8001ZM0 4.2002H4.19998V8.40017H0V4.2002ZM4.19998 16.8001H8.39996V21.0001H4.19998V16.8001Z" fill="white"/>
</svg>
