<svg width="27" height="25" viewBox="0 0 27 25" fill="none" xmlns="http://www.w3.org/2000/svg">
<path fill-rule="evenodd" clip-rule="evenodd" d="M0.90625 4.75C0.90625 2.6099 2.64115 0.875 4.78125 0.875H22.2188C24.3589 0.875 26.0938 2.6099 26.0938 4.75V20.25C26.0938 22.3901 24.3589 24.125 22.2188 24.125H4.78125C2.64115 24.125 0.90625 22.3901 0.90625 20.25V4.75ZM6.03374 6.00249C6.41206 5.62417 7.02544 5.62417 7.40376 6.00249L10.31 8.90874C10.6883 9.28706 10.6883 9.90044 10.31 10.2788L7.40376 13.185C7.02544 13.5633 6.41206 13.5633 6.03374 13.185C5.65542 12.8067 5.65542 12.1933 6.03374 11.815L8.25498 9.59375L6.03374 7.37251C5.65542 6.99419 5.65542 6.38081 6.03374 6.00249ZM11.5625 11.5312C11.0275 11.5312 10.5938 11.965 10.5938 12.5C10.5938 13.035 11.0275 13.4688 11.5625 13.4688H15.4375C15.9725 13.4688 16.4062 13.035 16.4062 12.5C16.4062 11.965 15.9725 11.5312 15.4375 11.5312H11.5625Z" fill="#3A5CE9"/>
</svg>
