<svg width="18" height="19" viewBox="0 0 18 19" fill="none" xmlns="http://www.w3.org/2000/svg">
<path d="M9.09713 0.574219H9.05648C4.13967 0.574219 0.153809 4.56126 0.153809 9.47951V9.52017C0.153809 14.4384 4.13967 18.4255 9.05648 18.4255H9.09713C14.0139 18.4255 17.9998 14.4384 17.9998 9.52017V9.47951C17.9998 4.56126 14.0139 0.574219 9.09713 0.574219Z" fill="black"/>
<path d="M13.6014 7.6647V9.35019C13.3069 9.32143 12.9242 9.25451 12.501 9.0994C11.9483 8.89677 11.5368 8.61971 11.2674 8.40519V11.8118L11.2605 11.8012C11.2649 11.8687 11.2674 11.9375 11.2674 12.007C11.2674 13.6987 9.89124 15.0759 8.19936 15.0759C6.50748 15.0759 5.13135 13.6987 5.13135 12.007C5.13135 10.3152 6.50748 8.93742 8.19936 8.93742C8.36505 8.93742 8.52761 8.95055 8.68642 8.9762V10.6373C8.53386 10.5829 8.37005 10.5535 8.19936 10.5535C7.39844 10.5535 6.74632 11.2052 6.74632 12.007C6.74632 12.8087 7.39844 13.4604 8.19936 13.4604C9.00028 13.4604 9.6524 12.8081 9.6524 12.007C9.6524 11.9769 9.65177 11.9469 9.6499 11.9169V5.29688H11.3336C11.3399 5.43947 11.3455 5.58332 11.3518 5.72591C11.363 6.00672 11.4631 6.27628 11.6375 6.49705C11.842 6.7566 12.1439 7.05805 12.5679 7.29883C12.9649 7.52398 13.3375 7.62029 13.6014 7.66595V7.6647Z" fill="#FF004F"/>
<path d="M13.0223 6.29583V7.98133C12.7278 7.95256 12.3451 7.88564 11.9219 7.73054C11.3691 7.5279 10.9577 7.25084 10.6883 7.03633V10.443L10.6814 10.4323C10.6858 10.4999 10.6883 10.5687 10.6883 10.6381C10.6883 12.3298 9.31214 13.707 7.62026 13.707C5.92838 13.707 4.55225 12.3298 4.55225 10.6381C4.55225 8.94635 5.92838 7.56855 7.62026 7.56855C7.78594 7.56855 7.9485 7.58169 8.10731 7.60733V9.26843C7.95476 9.21402 7.79095 9.18463 7.62026 9.18463C6.81934 9.18463 6.16722 9.83631 6.16722 10.6381C6.16722 11.4399 6.81934 12.0916 7.62026 12.0916C8.42118 12.0916 9.0733 11.4393 9.0733 10.6381C9.0733 10.6081 9.07267 10.5781 9.07079 10.548V3.92676H10.7545C10.7608 4.06935 10.7664 4.2132 10.7727 4.35579C10.7839 4.6366 10.884 4.90616 11.0584 5.12693C11.2629 5.38648 11.5648 5.68793 11.9888 5.92871C12.3858 6.15324 12.7584 6.25018 13.0223 6.29583Z" fill="#00F7EF"/>
<path d="M13.3904 7.03286V8.71836C13.0959 8.68959 12.7133 8.62267 12.29 8.46757C11.7373 8.26493 11.3259 7.98787 11.0564 7.77336V11.18L11.0496 11.1694C11.0539 11.2369 11.0564 11.3057 11.0564 11.3751C11.0564 13.0669 9.6803 14.444 7.98842 14.444C6.29655 14.444 4.92041 13.0669 4.92041 11.3751C4.92041 9.68338 6.29655 8.30558 7.98842 8.30558C8.15411 8.30558 8.31667 8.31872 8.47548 8.34436V10.0055C8.32292 9.95105 8.15911 9.92166 7.98842 9.92166C7.1875 9.92166 6.53538 10.5733 6.53538 11.3751C6.53538 12.1769 7.1875 12.8286 7.98842 12.8286C8.78934 12.8286 9.44146 12.1763 9.44146 11.3751C9.44146 11.3451 9.44084 11.3151 9.43896 11.2851V4.66504H11.1227C11.129 4.80763 11.1346 4.95148 11.1408 5.09407C11.1521 5.37489 11.2521 5.64444 11.4266 5.86521C11.631 6.12476 11.933 6.42621 12.3569 6.667C12.7539 6.89152 13.1266 6.98846 13.3904 7.03411V7.03286Z" fill="white"/>
</svg>
