<svg width="31" height="31" viewBox="0 0 31 31" fill="none" xmlns="http://www.w3.org/2000/svg">
<path d="M4.35938 5.8125C3.02181 5.8125 1.9375 6.89681 1.9375 8.23437V17.4375H17.4375V8.23438C17.4375 6.89681 16.3532 5.8125 15.0156 5.8125H4.35938Z" fill="#C84801"/>
<path d="M17.4375 19.375H1.9375V22.7656C1.9375 24.1032 3.02181 25.1875 4.35938 25.1875H4.84375C4.84375 23.0474 6.57865 21.3125 8.71875 21.3125C10.8589 21.3125 12.5938 23.0474 12.5938 25.1875H16.4688C17.0038 25.1875 17.4375 24.7538 17.4375 24.2188V19.375Z" fill="#C84801"/>
<path d="M10.6562 25.1875C10.6562 24.1174 9.7888 23.25 8.71875 23.25C7.6487 23.25 6.78125 24.1174 6.78125 25.1875C6.78125 26.2576 7.6487 27.125 8.71875 27.125C9.7888 27.125 10.6562 26.2576 10.6562 25.1875Z" fill="#C84801"/>
<path d="M20.3438 8.71875C19.8087 8.71875 19.375 9.15247 19.375 9.6875V24.2188C19.375 24.3309 19.394 24.4385 19.4291 24.5387C19.7378 22.7075 21.331 21.3125 23.25 21.3125C25.3737 21.3125 27.0984 23.0209 27.1247 25.1384C28.227 24.9123 29.0914 23.9302 29.016 22.7068C28.7151 17.8238 26.9668 13.3313 24.1961 9.65508C23.7382 9.04764 23.0259 8.71875 22.2968 8.71875H20.3438Z" fill="#C84801"/>
<path d="M25.1875 25.1875C25.1875 24.1174 24.3201 23.25 23.25 23.25C22.1799 23.25 21.3125 24.1174 21.3125 25.1875C21.3125 26.2576 22.1799 27.125 23.25 27.125C24.3201 27.125 25.1875 26.2576 25.1875 25.1875Z" fill="#C84801"/>
</svg>
