<svg width="22" height="23" viewBox="0 0 22 23" fill="none" xmlns="http://www.w3.org/2000/svg">
<path d="M21.9985 11.5228C21.9985 17.0799 17.8804 21.6741 12.5307 22.4196C12.0305 22.489 11.5187 22.5252 10.9992 22.5252C10.3996 22.5252 9.81075 22.4774 9.23732 22.3849C4.00014 21.5415 0 16.999 0 11.5228C0 5.44601 4.92503 0.519531 11 0.519531C17.075 0.519531 22 5.44601 22 11.5228H21.9985Z" fill="#1C1C1B"/>
<path d="M4.46129 5.37207L9.5343 12.1566L4.42969 17.6729H5.57886L10.0484 12.8435L13.6593 17.6729H17.5693L12.2111 10.5067L16.9627 5.37207H15.8135L11.6978 9.81978L8.37203 5.37207H4.46205H4.46129ZM6.15075 6.21859H7.94658L15.8783 16.8263H14.0824L6.15075 6.21859Z" fill="white"/>
</svg>
