<svg width="22" height="23" viewBox="0 0 22 23" fill="none" xmlns="http://www.w3.org/2000/svg">
<path d="M21.9985 11.0228C21.9985 16.5799 17.8804 21.1741 12.5307 21.9196C12.0305 21.989 11.5187 22.0252 10.9992 22.0252C10.3996 22.0252 9.81075 21.9774 9.23732 21.8849C4.00014 21.0415 0 16.499 0 11.0228C0 4.94601 4.92503 0.0195312 11 0.0195312C17.075 0.0195312 22 4.94601 22 11.0228H21.9985Z" fill="#1C1C1B"/>
<path d="M4.46153 4.87207L9.53454 11.6566L4.42993 17.1729H5.57911L10.0486 12.3435L13.6595 17.1729H17.5695L12.2113 10.0067L16.9629 4.87207H15.8138L11.698 9.31978L8.37227 4.87207H4.4623H4.46153ZM6.15099 5.71859H7.94682L15.8785 16.3263H14.0827L6.15099 5.71859Z" fill="white"/>
</svg>
