<svg width="22" height="22" viewBox="0 0 22 22" fill="none" xmlns="http://www.w3.org/2000/svg">
<path d="M11.0251 0H10.9749C4.91365 0 0 4.9151 0 10.9782V11.0283C0 17.0914 4.91365 22.0065 10.9749 22.0065H11.0251C17.0863 22.0065 22 17.0914 22 11.0283V10.9782C22 4.9151 17.0863 0 11.0251 0Z" fill="#00E510"/>
<path d="M13.1437 14.2215C10.3281 14.2215 8.03739 11.9293 8.03662 9.11286C8.03739 8.39892 8.61855 7.81836 9.33074 7.81836C9.40396 7.81836 9.47641 7.82453 9.54578 7.83686C9.69839 7.86231 9.8433 7.91396 9.97664 7.99183C9.99591 8.0034 10.009 8.0219 10.0121 8.04349L10.3096 9.91932C10.3135 9.94168 10.3065 9.96326 10.2919 9.97945C10.1277 10.1614 9.91806 10.2925 9.68452 10.358L9.57199 10.3896L9.61438 10.4983C9.99822 11.476 10.7798 12.257 11.7579 12.6425L11.8666 12.6856L11.8982 12.5731C11.9637 12.3395 12.0947 12.1298 12.2766 11.9655C12.2897 11.9532 12.3074 11.947 12.3252 11.947C12.329 11.947 12.3329 11.947 12.3375 11.9478L14.2128 12.2454C14.2351 12.2493 14.2536 12.2616 14.2652 12.2809C14.3423 12.4143 14.3939 12.56 14.4201 12.7126C14.4324 12.7805 14.4378 12.8522 14.4378 12.927C14.4378 13.6401 13.8575 14.2207 13.1437 14.2215Z" fill="#FDFDFD"/>
<path d="M18.1368 10.3872C17.9849 8.67096 17.1988 7.07886 15.9231 5.90463C14.6398 4.72347 12.975 4.07275 11.2338 4.07275C7.41233 4.07275 4.30306 7.18294 4.30306 11.0055C4.30306 12.2885 4.65684 13.5382 5.32663 14.6269L3.83289 17.9345L8.6155 17.4248C9.44715 17.7656 10.3274 17.9383 11.233 17.9383C11.4712 17.9383 11.7155 17.926 11.9606 17.9005C12.1764 17.8774 12.3946 17.8435 12.6088 17.8003C15.8091 17.1534 18.1453 14.3123 18.1638 11.0425V11.0055C18.1638 10.7974 18.1545 10.5892 18.136 10.3872H18.1368ZM8.79971 15.973L6.15367 16.2552L6.94371 14.5043L6.7857 14.2923C6.77414 14.2769 6.76258 14.2614 6.74947 14.2437C6.06349 13.2962 5.70122 12.1767 5.70122 11.0063C5.70122 7.95471 8.18309 5.47211 11.2338 5.47211C14.0918 5.47211 16.5143 7.70259 16.7479 10.5499C16.7602 10.7025 16.7671 10.856 16.7671 11.0071C16.7671 11.0502 16.7664 11.0927 16.7656 11.1381C16.707 13.6909 14.9242 15.8589 12.43 16.411C12.2396 16.4534 12.0446 16.4858 11.8504 16.5066C11.6485 16.5297 11.4411 16.5413 11.2353 16.5413C10.5023 16.5413 9.79015 16.3994 9.11727 16.1188C9.0425 16.0887 8.96928 16.0563 8.90068 16.0232L8.80048 15.9746L8.79971 15.973Z" fill="#FDFDFD"/>
</svg>
