<svg width="16" height="17" viewBox="0 0 16 17" fill="none" xmlns="http://www.w3.org/2000/svg">
<path fill-rule="evenodd" clip-rule="evenodd" d="M3 8V12.5H13V8C13.718 8 14.398 7.832 15 7.532V15.5C15 15.7652 14.8946 16.0196 14.7071 16.2071C14.5196 16.3946 14.2652 16.5 14 16.5H2C1.73478 16.5 1.48043 16.3946 1.29289 16.2071C1.10536 16.0196 1 15.7652 1 15.5V7.532C1.602 7.832 2.282 8 3 8ZM7.88777e-08 3.5L1.703 0.945C1.79435 0.808084 1.91808 0.695832 2.06322 0.618205C2.20835 0.540578 2.37041 0.499975 2.535 0.5H13.465C13.6296 0.499975 13.7916 0.540578 13.9368 0.618205C14.0819 0.695832 14.2057 0.808084 14.297 0.945L16 3.5C16.0001 4.14453 15.7927 4.77197 15.4084 5.2894C15.0241 5.80683 14.4834 6.18674 13.8664 6.37287C13.2493 6.559 12.5887 6.54145 11.9824 6.32282C11.3761 6.10419 10.8563 5.69611 10.5 5.159C9.963 5.967 9.043 6.5 8 6.5C6.957 6.5 6.037 5.967 5.5 5.159C5.14372 5.69611 4.62394 6.10419 4.01763 6.32282C3.41132 6.54145 2.75071 6.559 2.13365 6.37287C1.51658 6.18674 0.975864 5.80683 0.591573 5.2894C0.207283 4.77197 -0.000147673 4.14453 7.88777e-08 3.5Z" fill="#A3ACB9"/>
</svg>
