<svg width="49" height="48" viewBox="0 0 49 48" fill="none" xmlns="http://www.w3.org/2000/svg">
<path fill-rule="evenodd" clip-rule="evenodd" d="M24.4999 47.5999C37.5338 47.5999 48.0999 37.0338 48.0999 23.9999C48.0999 10.966 37.5338 0.399902 24.4999 0.399902C11.466 0.399902 0.899902 10.966 0.899902 23.9999C0.899902 37.0338 11.466 47.5999 24.4999 47.5999ZM35.8767 18.6637C36.5954 17.6755 36.377 16.2918 35.3887 15.5731C34.4005 14.8544 33.0168 15.0729 32.2981 16.0611L22.021 30.1921L16.4769 24.6479C15.6128 23.7839 14.212 23.7839 13.3479 24.6479C12.4839 25.512 12.4839 26.9128 13.3479 27.7769L20.7229 35.1519C21.1805 35.6094 21.8154 35.8437 22.4605 35.7931C23.1055 35.7425 23.6961 35.412 24.0767 34.8887L35.8767 18.6637Z" fill="#228403"/>
</svg>
