<svg width="20" height="21" viewBox="0 0 20 21" fill="none" xmlns="http://www.w3.org/2000/svg">
<path fill-rule="evenodd" clip-rule="evenodd" d="M10 19.875C14.8325 19.875 18.75 15.9575 18.75 11.125C18.75 6.29251 14.8325 2.375 10 2.375C5.16751 2.375 1.25 6.29251 1.25 11.125C1.25 12.6943 1.66313 14.1671 2.38654 15.4406L1.25 19.875L5.82179 18.8149C7.06337 19.4909 8.48681 19.875 10 19.875ZM10 18.5289C14.0891 18.5289 17.4039 15.2141 17.4039 11.125C17.4039 7.036 14.0891 3.72116 10 3.72116C5.91097 3.72116 2.59616 7.036 2.59616 11.125C2.59616 12.7038 3.09031 14.1672 3.9324 15.3689L3.26923 17.8557L5.79996 17.2231C6.99337 18.0466 8.44037 18.5289 10 18.5289Z" fill="#BFC8D0"/>
<path d="M17.5 10.5C17.5 14.6421 14.1421 18 10 18C8.42013 18 6.95431 17.5115 5.74541 16.6773L3.18182 17.3182L3.8536 14.799C3.00058 13.5817 2.5 12.0993 2.5 10.5C2.5 6.35786 5.85786 3 10 3C14.1421 3 17.5 6.35786 17.5 10.5Z" fill="url(#paint0_linear_27893_16331)"/>
<path fill-rule="evenodd" clip-rule="evenodd" d="M10 19.25C14.8325 19.25 18.75 15.3325 18.75 10.5C18.75 5.66751 14.8325 1.75 10 1.75C5.16751 1.75 1.25 5.66751 1.25 10.5C1.25 12.0693 1.66313 13.5421 2.38654 14.8156L1.25 19.25L5.82179 18.1899C7.06337 18.8659 8.48681 19.25 10 19.25ZM10 17.9039C14.0891 17.9039 17.4039 14.5891 17.4039 10.5C17.4039 6.41097 14.0891 3.09616 10 3.09616C5.91097 3.09616 2.59616 6.41097 2.59616 10.5C2.59616 12.0788 3.09031 13.5422 3.9324 14.7439L3.26923 17.2307L5.79996 16.5981C6.99337 17.4216 8.44037 17.9039 10 17.9039Z" fill="white"/>
<path d="M7.8125 6.43737C7.6045 6.01951 7.28531 6.0565 6.96294 6.0565C6.38675 6.0565 5.48828 6.74668 5.48828 8.03118C5.48828 9.08386 5.95216 10.2362 7.51525 11.96C9.02375 13.6236 11.0059 14.4842 12.6514 14.4549C14.2969 14.4256 14.6354 13.0096 14.6354 12.5314C14.6354 12.3194 14.5039 12.2137 14.4133 12.1849C13.8526 11.9159 12.8183 11.4144 12.583 11.3202C12.3477 11.226 12.2248 11.3534 12.1484 11.4227C11.9351 11.6261 11.5121 12.2254 11.3672 12.3602C11.2224 12.4951 11.0064 12.4268 10.9166 12.3759C10.5859 12.2432 9.68931 11.8444 8.97469 11.1516C8.09081 10.2948 8.03894 10.0001 7.87244 9.73761C7.73925 9.52774 7.837 9.39893 7.88575 9.34261C8.07619 9.12293 8.33912 8.78368 8.45706 8.61511C8.57494 8.44655 8.48137 8.19055 8.42519 8.03118C8.18362 7.34555 7.97894 6.77168 7.8125 6.43737Z" fill="white"/>
<defs>
<linearGradient id="paint0_linear_27893_16331" x1="16.5625" y1="4.875" x2="2.5" y2="18" gradientUnits="userSpaceOnUse">
<stop stop-color="#5BD066"/>
<stop offset="1" stop-color="#27B43E"/>
</linearGradient>
</defs>
</svg>
