<svg width="254" height="108" viewBox="0 0 254 108" fill="none" xmlns="http://www.w3.org/2000/svg">
<path d="M210.988 21.5066H232.494V43.0125H210.988V21.5066ZM210.988 43.0125H232.494V64.5185H210.988V43.0125ZM210.988 64.5185H232.494V86.0244H210.988V64.5185ZM210.988 86.0244H232.494V107.53H210.988V86.0244ZM232.494 21.5066H254V43.0125H232.494V21.5066Z" fill="#5433EB"/>
<path d="M133.497 21.5066H155.003V43.0125H133.497V21.5066ZM133.497 43.0125H155.003V64.5185H133.497V43.0125ZM133.497 64.5185H155.003V86.0244H133.497V64.5185ZM155.003 86.0244H176.509V107.53H155.003V86.0244ZM176.509 86.0244H198.015V107.53H176.509V86.0244ZM176.509 64.5185H198.015V86.0244H176.509V64.5185ZM176.509 43.0125H198.015V64.5185H176.509V43.0125ZM176.509 21.5066H198.015V43.0125H176.509V21.5066Z" fill="#5433EB"/>
<path d="M77.4907 0H98.9967V21.5059H77.4907V0ZM77.4907 21.5059H98.9967V43.0119H77.4907V21.5059ZM77.4907 43.0119H98.9967V64.5178H77.4907V43.0119ZM77.4907 64.5178H98.9967V86.0238H77.4907V64.5178ZM77.4907 86.0238H98.9967V107.53H77.4907V86.0238ZM98.9967 86.0238H120.503V107.53H98.9967V86.0238ZM98.9967 21.5059H120.503V43.0119H98.9967V21.5059Z" fill="#5433EB"/>
<path d="M43.0119 21.5066H64.5178V43.0125H43.0119V21.5066ZM21.5059 21.5066H43.0119V43.0125H21.5059V21.5066ZM0 43.0125H21.5059V64.5185H0V43.0125ZM43.0119 64.5185H64.5178V86.0244H43.0119V64.5185ZM43.0119 86.0244H64.5178V107.53H43.0119V86.0244ZM0 86.0244H21.5059V107.53H0V86.0244ZM0 21.5066H21.5059V43.0125H0V21.5066ZM21.5059 86.0244H43.0119V107.53H21.5059V86.0244Z" fill="#5433EB"/>
</svg>
